{"glyphs":{":":{"x_min":0,"x_max":211,"ha":211,"o":"m 192 321 q 192 316 188 312 q 184 308 182 302 q 181 296 178 286 q 168 275 153 268 q 138 260 130 260 q 125 260 124 263 q 120 275 105 281 q 91 286 89 294 l 89 311 q 88 318 86 326 q 86 332 95 337 q 103 342 105 346 q 105 349 104 359 q 102 368 103 371 q 106 382 122 394 q 125 395 131 398 q 138 392 147 389 q 155 386 164 386 q 178 386 180 383 q 186 373 189 356 q 192 339 192 321 z m 126 90 q 132 78 132 66 q 132 59 131 56 q 130 50 120 42 q 111 34 111 26 q 111 22 115 17 q 118 11 118 6 q 117 -5 107 -7 q 98 -9 79 -9 q 56 -9 42 -2 q 28 6 22 28 q 18 41 43 83 q 68 125 82 114 q 88 108 94 102 q 105 103 117 104 q 122 102 126 90 z"},"$":{"x_min":0,"x_max":509,"ha":509,"o":"m 326 643 l 332 645 q 333 646 333 652 q 332 664 332 669 q 332 678 338 678 q 345 678 356 673 q 358 672 361 670 q 361 664 361 661 q 361 645 361 635 q 361 625 360 618 q 365 619 368 617 q 374 612 381 606 l 388 607 l 390 612 l 406 612 l 411 605 q 418 606 426 608 q 430 608 435 605 q 449 598 464 586 q 478 574 478 568 l 475 511 l 481 508 l 479 495 l 462 493 q 447 509 415 518 q 384 528 359 528 q 342 528 341 524 q 335 512 333 505 q 323 478 319 464 q 315 450 312 432 q 308 415 306 393 l 299 337 q 301 337 317 338 q 333 338 343 338 q 367 338 371 335 l 385 318 l 396 323 q 405 327 422 316 q 438 305 447 290 q 455 276 457 267 q 458 257 458 224 q 458 158 408 102 q 368 58 305 25 q 254 -2 218 -7 q 213 -8 209 -3 q 209 -11 208 -26 q 208 -41 200 -81 q 198 -89 190 -95 q 182 -101 175 -101 q 165 -101 165 -92 l 171 -52 q 175 -48 177 -38 q 178 -28 178 -22 q 178 -15 178 -10 q 178 -8 177 -5 q 169 -6 165 -6 q 136 -6 92 16 q 48 38 34 55 q 28 62 28 68 q 28 72 32 79 q 35 85 35 88 q 34 97 33 107 q 33 121 40 129 q 48 138 71 143 q 76 140 78 138 q 88 132 95 130 q 102 128 112 125 q 118 122 123 113 q 128 105 131 104 q 144 93 154 88 q 164 82 177 82 q 182 83 184 83 q 195 85 201 98 q 202 102 205 112 q 210 118 224 183 q 228 205 237 247 q 240 253 233 256 q 226 258 212 258 q 198 258 185 258 q 172 257 161 256 q 145 256 117 287 q 89 318 85 348 q 83 356 82 365 q 81 375 81 385 q 81 402 82 411 q 83 420 87 443 q 88 451 97 460 q 115 479 119 498 q 121 508 162 531 q 185 545 202 549 q 225 568 241 578 q 258 589 276 589 q 289 588 295 588 q 307 588 313 594 q 319 600 322 618 z m 265 229 q 263 228 258 203 q 247 141 238 117 q 232 104 232 94 q 232 71 256 71 q 264 71 270 70 q 276 70 281 70 q 293 70 304 74 q 332 83 347 116 q 359 144 359 180 q 359 190 358 200 q 356 211 354 222 q 352 232 336 247 q 321 262 304 262 q 293 262 283 255 q 274 247 265 229 z m 301 528 q 297 529 295 529 q 287 531 279 531 q 242 531 215 508 q 175 476 175 408 q 175 393 178 373 q 180 352 199 340 q 218 328 238 328 q 262 328 262 340 q 275 391 282 418 q 301 502 301 528 z"},"?":{"x_min":0,"x_max":452,"ha":452,"o":"m 132 77 q 155 73 162 66 q 169 58 169 45 q 169 43 168 34 q 162 10 153 -2 q 141 -18 122 -18 l 107 -17 q 94 -15 90 -14 q 80 -10 75 -6 q 70 -2 70 5 q 70 9 75 15 q 81 21 80 23 q 78 31 78 34 q 78 52 93 65 q 108 78 125 78 q 130 78 132 77 z m 191 144 q 192 138 178 126 q 165 115 155 115 q 144 115 141 130 q 140 135 127 131 q 115 128 109 129 q 98 133 93 143 q 88 153 88 168 q 88 185 95 203 q 109 234 123 265 q 147 312 192 312 q 239 312 268 352 q 297 391 297 438 q 297 495 268 522 q 245 543 205 543 q 188 543 176 541 q 164 538 149 534 q 78 512 70 489 q 68 488 66 488 q 63 492 57 492 q 51 491 48 491 q 45 491 45 496 q 45 498 45 501 q 46 505 46 507 q 42 514 42 518 q 42 522 55 528 q 73 536 73 548 q 72 556 72 560 q 72 565 74 568 q 80 575 93 582 q 105 588 111 592 q 116 595 129 603 q 142 612 151 612 q 158 612 169 605 q 180 598 188 598 q 195 598 205 605 q 216 612 223 612 q 231 612 238 608 q 258 598 262 598 q 266 598 269 600 q 278 608 283 611 q 289 615 301 615 q 326 615 355 601 q 383 587 383 568 q 383 566 382 562 q 381 558 399 543 q 422 525 422 483 q 422 446 412 422 q 405 406 383 372 q 364 342 328 314 q 296 288 274 284 q 252 281 226 277 q 199 265 191 206 q 189 199 188 193 q 188 188 188 178 q 188 168 188 159 q 190 149 191 144 z"},"a":{"x_min":0,"x_max":397,"ha":397,"o":"m 338 254 q 338 246 325 196 q 318 171 318 134 q 318 89 358 75 q 364 70 371 65 q 362 51 323 22 q 278 -12 255 -12 q 248 -12 244 -9 q 242 -8 242 -7 q 238 3 238 25 q 238 45 238 54 q 239 63 244 92 q 245 95 245 97 q 245 100 245 101 q 245 118 232 118 q 222 118 223 107 q 225 96 137 22 q 92 -15 75 -15 q 69 -15 68 -4 q 66 8 51 16 q 36 24 36 30 q 36 52 35 71 q 35 90 34 109 q 34 140 40 166 q 46 192 64 222 q 67 227 68 237 q 68 246 71 252 q 77 265 137 317 q 197 368 218 378 q 224 382 230 382 q 243 379 250 378 q 258 377 262 378 q 278 382 298 398 q 304 404 315 415 q 323 404 341 397 q 359 391 364 388 q 366 386 366 381 q 366 380 348 309 q 338 274 338 254 z m 138 231 q 138 217 127 191 q 122 178 122 166 q 122 160 121 148 q 120 135 120 130 q 120 115 123 107 q 126 98 133 90 q 139 83 169 107 q 199 131 218 157 q 222 162 225 166 q 224 166 223 166 q 222 178 255 247 q 264 265 269 285 q 275 305 275 320 q 275 339 265 344 q 260 345 255 345 q 225 345 183 307 q 138 265 138 231 z"},"L":{"x_min":0,"x_max":623,"ha":623,"o":"m 367 492 q 361 485 355 471 q 348 457 345 452 q 342 447 328 430 q 317 418 312 403 q 308 389 232 197 q 206 133 206 115 q 206 105 213 106 q 251 110 277 112 q 302 113 325 113 q 366 113 415 112 q 463 112 510 111 q 546 111 568 80 q 575 70 584 49 q 558 38 548 24 q 544 18 542 18 q 539 18 530 25 q 532 22 532 14 q 532 3 525 -12 q 524 -17 519 -26 q 507 -23 495 -21 q 466 -2 438 17 q 383 24 328 24 q 264 24 208 17 q 152 11 125 2 q 98 -7 80 -11 q 62 -15 50 -15 q 37 -15 37 -8 q 37 0 61 27 q 85 54 84 62 q 85 72 85 79 q 85 86 92 85 q 122 78 156 170 q 167 201 184 265 q 182 269 182 272 q 180 285 180 296 q 180 317 185 345 q 202 423 249 514 q 295 601 313 598 q 317 596 318 595 q 325 592 331 592 q 335 592 338 595 q 352 610 365 616 q 378 622 392 622 q 398 622 411 619 q 423 617 427 617 q 430 617 435 618 q 453 627 465 630 q 478 633 486 633 q 494 633 513 627 q 525 623 535 623 l 536 603 q 535 604 535 605 q 539 605 561 591 q 565 578 553 563 q 539 545 539 529 q 539 508 526 508 q 518 508 503 517 q 483 528 479 529 q 459 536 443 536 q 421 536 401 524 q 385 514 367 492 z"},"3":{"x_min":0,"x_max":445,"ha":445,"o":"m 306 425 q 290 400 290 378 q 290 355 311 337 q 362 292 374 277 q 403 241 403 198 q 403 164 397 149 q 388 128 357 108 q 308 78 292 62 q 255 24 251 21 q 224 3 187 -7 q 151 -16 118 -16 q 80 -16 56 -5 q 32 6 32 27 q 32 36 36 44 q 38 48 47 53 q 56 58 59 62 q 62 66 62 71 q 57 84 57 91 q 57 96 61 101 q 65 105 75 111 q 82 113 85 113 q 88 113 105 100 q 121 88 149 88 q 226 88 263 111 q 295 131 295 166 q 295 205 258 247 q 222 288 184 298 q 173 301 168 322 q 163 344 152 351 q 184 378 199 395 q 247 447 247 480 q 247 493 239 503 q 232 512 215 516 q 198 520 177 520 q 162 520 122 516 q 105 515 96 515 q 89 515 87 515 q 84 516 85 519 q 88 531 88 538 q 88 547 85 550 q 81 554 72 554 q 66 554 68 558 q 66 565 71 575 q 76 585 82 582 q 91 578 101 578 q 118 578 125 598 q 127 604 128 618 q 151 615 165 615 q 212 610 232 610 q 253 610 285 611 q 317 612 336 612 q 342 612 353 612 q 364 613 368 613 q 384 613 396 607 q 415 598 415 586 q 415 577 395 558 q 382 545 375 538 q 372 535 369 534 q 371 535 372 538 q 373 528 306 425 z"},";":{"x_min":0,"x_max":235,"ha":235,"o":"m 211 355 l 211 300 q 211 294 208 294 q 203 294 195 293 q 188 293 178 287 q 168 280 152 280 q 135 280 124 290 q 112 299 112 316 q 112 369 131 392 q 142 406 159 406 q 164 406 167 405 q 167 405 168 405 q 180 412 195 394 q 211 375 211 355 z m 69 60 q 77 82 83 91 q 89 99 95 99 q 107 98 118 97 q 126 99 133 102 q 141 104 144 104 q 151 104 154 98 q 160 89 160 76 q 160 58 146 38 q 142 32 128 15 q 117 4 116 -8 q 115 -19 102 -26 q 89 -48 83 -58 q 63 -89 54 -91 q 42 -93 34 -88 q 25 -82 25 -68 q 26 -63 26 -60 q 28 -45 45 -3 q 68 55 69 60 z"},"J":{"x_min":0,"x_max":482,"ha":482,"o":"m 370 323 q 362 290 351 213 q 339 136 331 102 q 318 53 301 44 q 297 42 293 42 q 291 42 284 43 q 277 45 273 44 q 262 42 253 21 q 244 0 231 0 q 227 0 227 -7 q 228 -16 228 -21 q 228 -27 225 -30 q 203 -48 182 -68 q 153 -91 129 -91 q 118 -91 107 -85 q 95 -76 84 -67 l 70 -62 q 60 -57 53 -47 q 45 -38 45 -29 q 45 -23 52 -21 q 138 6 189 81 q 228 138 252 232 q 268 307 285 383 q 295 421 302 457 q 310 494 310 508 q 310 518 306 521 q 302 524 303 533 q 304 535 304 538 q 304 541 304 542 q 304 550 300 553 q 296 556 289 556 q 285 556 276 555 q 267 553 262 553 q 257 553 255 554 q 249 556 243 557 q 236 558 226 558 q 220 558 208 557 q 195 556 191 556 q 175 556 167 560 q 159 564 158 575 q 156 587 156 590 q 156 602 163 608 q 171 614 176 618 q 185 626 195 626 q 205 626 225 618 q 246 609 259 609 q 268 609 280 610 q 292 612 292 612 q 299 612 311 603 q 322 594 328 598 q 352 611 375 625 q 396 635 417 635 q 422 635 428 634 q 435 633 439 632 q 445 632 445 618 q 445 588 405 449 q 378 354 370 323 z"},"V":{"x_min":0,"x_max":588,"ha":588,"o":"m 247 122 q 259 138 272 155 q 278 159 298 162 q 319 165 316 173 q 315 175 345 212 q 385 260 407 315 q 441 400 441 505 q 441 527 424 532 q 407 536 390 540 q 353 556 321 556 q 308 556 305 555 q 300 555 279 547 q 282 558 287 570 q 291 582 300 585 q 309 589 363 600 q 416 612 429 618 q 432 620 436 620 q 442 620 459 606 q 468 598 475 598 l 501 595 q 525 590 540 581 q 554 572 556 554 q 558 542 551 513 q 545 485 545 468 q 545 455 548 435 q 552 414 552 403 q 552 399 552 395 q 552 390 549 381 q 544 362 514 289 q 499 253 494 235 q 484 231 478 228 q 461 218 453 211 q 445 203 439 190 q 424 154 422 152 q 408 132 387 117 q 324 73 314 62 q 311 59 262 49 q 212 39 198 29 q 183 19 172 16 q 158 14 143 12 q 139 10 120 7 q 102 3 92 -5 q 90 -6 89 -3 q 88 -1 88 7 q 88 15 89 38 q 90 61 90 63 q 90 78 89 89 q 88 101 85 111 q 77 126 73 133 q 70 141 72 148 q 76 165 79 231 q 88 385 95 432 q 97 448 97 461 q 97 508 68 535 q 59 543 39 552 q 36 558 45 562 q 77 576 118 595 q 139 605 157 610 q 174 615 187 615 q 205 615 214 604 q 222 592 222 573 q 222 548 209 507 q 204 491 198 475 q 185 430 173 332 q 162 233 162 162 q 162 118 167 103 q 171 100 175 97 q 178 99 220 111 q 241 117 247 122 z"},"7":{"x_min":0,"x_max":422,"ha":422,"o":"m 236 53 q 241 39 212 19 q 184 -1 168 2 q 152 5 140 -5 q 127 -15 118 -14 q 101 -14 95 -5 q 94 -2 94 6 q 94 42 138 167 q 165 243 221 385 q 245 445 268 505 q 269 510 271 515 q 271 521 266 523 q 265 524 255 524 q 248 524 234 522 q 220 519 200 514 q 181 509 171 508 q 161 507 145 506 q 128 505 104 505 q 90 505 86 505 q 84 505 79 505 q 65 505 50 517 q 34 529 34 541 q 34 548 40 552 q 50 558 50 564 q 50 566 45 571 q 41 575 42 579 q 38 593 50 612 q 62 630 79 630 q 95 630 98 613 q 102 596 109 598 q 123 601 149 602 q 175 602 212 602 l 263 602 q 277 602 284 602 q 315 602 337 605 q 359 608 384 612 q 386 609 388 607 q 383 602 380 596 q 378 589 378 584 q 379 572 379 565 q 379 560 376 552 q 373 544 367 533 q 360 523 356 517 q 318 457 288 355 q 264 276 250 189 q 235 102 235 65 q 235 55 236 53 z"},"S":{"x_min":0,"x_max":567,"ha":567,"o":"m 145 256 q 115 256 95 309 q 75 362 75 410 q 75 432 81 441 q 98 474 109 494 q 120 514 127 517 q 195 554 238 577 q 288 603 322 616 q 356 628 415 628 q 459 628 491 619 q 522 610 528 588 q 529 586 529 579 q 529 555 510 520 q 491 485 478 485 q 468 485 452 512 q 445 527 434 528 q 378 538 331 538 q 242 538 210 505 q 192 492 185 486 q 173 475 173 458 q 173 452 175 441 q 182 405 189 370 q 204 325 242 325 q 282 325 312 328 q 342 331 353 337 q 372 347 388 352 q 404 357 419 357 q 450 357 468 336 q 487 315 487 277 q 487 228 470 174 q 448 104 404 62 q 396 55 368 39 q 352 29 337 16 q 334 14 326 13 q 318 12 309 7 q 292 -5 261 -12 q 229 -19 193 -19 q 147 -19 106 -5 q 100 -2 89 5 q 78 13 73 15 q 67 18 52 18 q 37 19 37 28 l 37 95 l 58 125 l 72 125 q 78 125 97 148 q 104 156 108 150 q 128 117 136 104 q 152 81 175 78 q 178 78 188 80 q 197 82 203 81 q 210 79 239 65 q 265 54 278 54 q 292 54 302 62 q 310 73 315 77 q 319 82 328 86 q 337 91 342 95 q 352 104 357 129 q 363 154 363 185 q 363 218 356 238 q 349 258 335 258 q 282 258 257 259 q 231 260 208 261 q 196 261 189 260 q 154 256 145 256 z"},"Z":{"x_min":0,"x_max":655,"ha":655,"o":"m 134 593 q 134 612 145 627 q 155 642 168 642 q 182 642 190 623 q 199 604 219 595 q 220 595 261 584 q 271 581 283 579 q 296 578 308 578 q 313 578 319 578 q 328 579 332 579 q 335 580 337 582 q 340 585 344 588 q 355 591 363 591 q 368 591 378 590 q 388 589 393 589 q 408 589 421 592 q 433 595 450 605 q 458 609 488 616 q 518 622 536 622 q 550 622 554 618 q 565 607 565 592 q 565 562 524 516 q 497 486 471 457 q 465 449 464 443 q 462 437 462 430 q 462 424 463 418 q 464 412 465 406 q 465 399 462 392 q 455 378 429 368 q 404 357 399 342 q 398 337 400 327 q 402 317 402 314 q 402 308 397 305 q 395 304 391 304 q 387 304 385 302 q 365 280 336 242 q 316 215 284 171 q 262 148 251 135 q 228 110 228 96 q 228 85 240 78 q 252 71 282 67 q 346 59 375 48 q 418 32 434 32 q 442 32 455 36 q 468 40 474 40 q 482 40 489 35 q 492 31 496 28 q 499 27 503 29 q 508 32 510 32 q 516 33 525 30 q 534 28 538 28 q 548 28 560 39 q 586 65 589 65 q 591 65 595 62 q 622 39 622 28 q 622 22 606 13 q 591 5 588 -4 q 585 -13 578 -23 q 567 -39 556 -55 q 546 -74 530 -82 q 513 -91 492 -91 q 470 -91 438 -81 q 407 -71 304 -37 q 201 -4 178 2 q 119 19 91 23 q 63 26 53 31 q 43 35 43 42 q 43 49 53 57 q 63 64 72 67 q 98 75 146 134 q 178 173 242 264 q 332 392 339 402 q 341 403 340 410 q 339 417 342 420 q 344 422 352 422 q 357 422 358 425 q 363 436 366 448 q 368 459 368 472 q 368 488 362 497 q 356 505 342 505 q 332 505 314 498 q 308 498 305 497 q 278 492 270 492 q 264 492 255 495 q 245 498 241 498 q 238 498 233 496 q 225 490 217 485 q 174 494 161 500 q 148 505 148 513 q 149 519 149 523 q 149 530 145 538 q 138 553 136 561 q 134 568 134 593 z"},"x":{"x_min":0,"x_max":410,"ha":410,"o":"m 332 -12 q 330 -15 325 -15 q 322 -15 317 -12 q 304 -6 302 -6 q 298 -6 295 -9 q 287 -18 274 -18 q 265 -18 259 -17 q 252 -15 249 -14 q 228 38 215 71 q 201 104 189 104 q 178 104 137 43 q 96 -18 78 -16 q 63 -14 45 2 q 38 11 32 21 q 62 40 110 118 q 125 143 152 192 q 152 206 111 300 q 69 394 69 415 q 69 422 71 423 q 72 426 80 428 q 88 429 97 429 q 113 429 120 428 q 122 428 125 427 l 141 415 q 146 412 161 431 q 165 432 168 434 q 177 392 186 351 q 198 312 215 298 q 235 322 255 347 q 288 402 288 418 q 287 430 294 436 q 302 442 312 442 q 323 442 323 435 q 322 436 322 438 q 324 436 334 414 q 335 411 349 413 q 362 416 366 416 q 372 416 371 411 q 370 406 370 400 q 369 394 369 383 q 369 377 369 375 q 369 375 369 372 q 357 353 345 334 q 320 293 295 252 q 270 212 252 180 q 258 168 260 163 q 268 145 273 141 q 278 136 278 126 q 279 115 282 111 q 296 82 322 70 q 346 63 371 57 q 360 36 355 26 q 338 -5 332 -12 z"},")":{"x_min":0,"x_max":356,"ha":356,"o":"m 291 635 q 293 631 293 628 q 293 624 289 613 q 285 603 285 601 q 285 597 288 593 q 312 574 320 541 q 325 518 325 473 q 325 465 325 463 q 325 448 322 429 q 319 410 316 391 q 313 372 285 318 q 275 298 275 277 q 275 237 252 195 q 218 134 212 120 q 208 100 206 88 q 204 75 194 67 q 153 34 125 9 q 90 -22 74 -42 q 68 -48 62 -52 q 56 -55 52 -55 q 45 -55 42 -47 q 38 -38 38 -28 q 38 -19 40 -16 q 42 -14 44 -16 q 48 -16 89 45 q 142 121 175 201 q 222 314 222 411 q 222 485 191 581 q 181 612 159 662 q 155 671 173 674 q 192 677 196 681 q 215 698 215 719 q 240 695 252 683 q 289 645 291 635 z"},"&":{"x_min":0,"x_max":602,"ha":602,"o":"m 561 75 l 559 62 l 576 43 l 576 9 q 573 2 564 -4 q 555 -11 542 -11 q 538 -11 535 -10 q 505 -5 469 16 q 433 38 397 60 q 358 33 320 12 q 277 -13 248 -13 q 241 -13 237 -12 q 184 -6 151 16 q 112 42 103 89 q 86 98 69 122 q 52 146 40 194 q 39 196 38 202 q 38 208 38 217 q 38 265 91 311 q 130 345 189 372 q 235 394 243 394 q 243 432 251 454 q 262 488 297 520 q 301 522 303 523 q 312 527 314 528 q 319 530 326 536 q 332 542 338 542 q 346 542 362 529 q 373 519 399 498 q 406 493 414 482 q 415 480 416 478 q 419 472 419 465 q 419 456 415 446 q 388 377 358 372 q 342 369 339 362 q 335 354 335 343 q 335 306 360 249 q 385 192 398 195 q 419 201 435 244 q 450 287 456 287 q 459 287 463 283 q 474 275 478 272 q 493 258 488 249 l 471 223 l 478 212 l 469 142 l 465 125 q 462 112 476 98 q 489 85 502 85 q 509 85 513 92 q 524 112 532 118 q 534 119 538 120 q 546 112 550 107 q 563 92 563 82 q 563 78 561 75 z m 167 80 q 184 64 208 64 q 227 64 255 75 q 283 87 311 98 q 318 102 322 110 q 325 118 329 125 q 330 132 328 139 q 327 146 320 154 q 310 165 272 269 q 256 314 251 314 q 212 314 177 267 q 142 221 142 169 q 142 132 145 115 q 148 97 167 80 z"},"v":{"x_min":0,"x_max":414,"ha":414,"o":"m 165 339 q 148 296 145 285 q 145 274 142 252 q 138 230 136 204 q 134 178 134 150 q 134 104 142 77 q 149 50 169 50 q 173 50 175 51 q 223 62 242 85 q 260 119 272 142 q 292 179 293 184 q 298 201 298 261 q 298 298 288 312 q 270 335 210 335 q 206 334 207 342 q 208 349 215 354 q 223 358 254 379 q 297 408 314 408 q 333 408 338 403 q 342 397 347 391 q 357 385 368 378 q 378 372 378 362 q 378 352 380 337 q 381 322 381 314 q 381 180 293 78 q 218 -9 150 -9 q 94 -5 68 28 q 45 57 45 106 q 42 115 40 125 q 40 141 44 145 q 46 148 47 151 q 52 172 53 192 q 55 213 55 237 q 55 242 54 248 q 53 254 52 259 q 52 266 56 271 q 63 279 66 320 q 66 327 67 339 q 55 345 51 349 q 35 361 38 367 q 54 375 62 379 q 87 392 92 392 q 96 392 114 402 q 119 405 132 413 q 136 414 138 414 q 145 413 148 407 q 149 405 145 396 q 145 394 146 392 q 150 390 154 388 q 155 390 155 392 q 159 397 163 397 q 171 397 171 375 q 171 354 165 339 z"},"O":{"x_min":0,"x_max":615,"ha":615,"o":"m 266 598 q 295 617 335 635 q 365 648 395 662 q 408 668 413 675 q 418 682 423 683 q 459 668 477 661 q 532 637 538 628 l 559 595 q 565 594 567 562 q 569 530 571 517 q 573 505 579 470 q 585 436 585 413 q 585 337 571 263 q 558 190 538 171 q 536 168 534 171 q 525 178 524 178 q 519 178 513 166 q 465 68 388 20 q 323 -22 251 -22 q 208 -22 173 -7 q 138 8 121 32 q 91 73 79 111 q 71 138 71 167 q 71 174 71 182 q 72 190 72 200 q 72 215 65 222 q 49 238 42 249 q 35 261 35 269 q 35 278 42 286 q 60 311 61 314 q 85 404 134 472 q 183 541 266 598 z m 388 607 q 385 608 378 608 q 310 608 245 482 q 179 356 179 232 q 179 165 200 122 q 224 72 273 55 q 280 53 288 53 q 345 53 408 168 q 472 284 472 401 q 472 426 468 448 q 465 471 458 492 q 455 499 448 548 q 442 598 388 607 z"},"(":{"x_min":0,"x_max":364,"ha":364,"o":"m 140 0 q 134 -7 128 -10 q 123 -12 117 -12 q 113 -12 105 -10 q 96 -8 91 -8 q 88 -8 83 -9 q 80 -10 78 -8 q 77 -6 77 -2 q 77 2 78 15 q 80 29 80 40 q 80 62 74 82 q 68 102 51 121 q 35 140 35 169 q 35 183 39 198 q 40 202 50 209 q 61 215 61 220 q 61 223 54 228 q 35 240 35 258 q 35 265 39 272 q 49 298 73 359 q 98 421 142 524 q 170 588 187 601 q 215 612 247 629 q 268 651 280 661 q 317 693 330 693 q 334 693 336 691 q 338 688 299 641 q 245 575 209 492 q 154 364 135 188 q 134 182 134 178 q 134 172 134 170 q 134 125 157 48 q 177 -19 174 -22 q 169 -26 152 -5 q 145 5 140 0 z"},"C":{"x_min":0,"x_max":555,"ha":555,"o":"m 446 115 q 445 111 445 107 q 435 92 435 85 q 435 82 439 75 q 444 68 444 65 q 446 49 440 39 q 434 28 418 25 q 402 22 398 21 q 392 18 381 9 q 370 -1 361 -2 q 353 -3 342 2 q 330 6 327 6 q 322 6 319 5 q 287 -12 238 -12 q 182 -12 137 11 q 87 36 75 81 q 74 83 74 88 q 74 95 78 108 q 82 120 82 125 q 82 132 77 138 q 73 144 60 146 q 46 148 45 155 q 41 170 41 187 q 41 252 78 335 q 122 429 195 498 q 202 505 210 506 q 218 508 222 510 q 227 513 231 521 q 235 528 238 531 q 257 541 275 552 q 308 590 349 609 q 390 628 428 628 q 433 628 440 622 q 448 617 451 616 q 455 615 463 615 q 473 615 478 615 q 482 615 490 613 q 499 611 509 588 q 514 578 515 568 q 518 555 494 545 q 471 535 469 531 q 467 525 462 530 q 452 538 442 547 q 428 552 415 552 q 404 552 388 547 q 382 545 374 538 q 366 532 361 531 q 355 530 347 532 q 339 534 335 533 q 298 528 246 458 q 202 398 190 358 q 188 350 188 347 q 188 342 190 332 q 192 323 192 318 q 192 309 187 303 q 183 296 178 291 q 178 275 178 259 q 177 244 176 229 q 176 218 177 208 q 178 198 181 187 q 190 150 211 118 q 228 92 255 69 q 257 67 263 68 q 268 68 275 69 q 282 68 286 65 q 301 54 303 53 q 312 49 325 49 q 350 49 382 68 q 414 92 446 115 z"},"W":{"x_min":0,"x_max":1008,"ha":1008,"o":"m 654 642 q 658 642 669 642 q 680 643 687 643 q 728 643 809 636 q 889 628 968 621 q 977 621 984 612 q 991 604 991 594 q 991 591 989 585 q 987 580 978 580 q 965 582 958 582 q 952 582 947 578 q 942 574 942 567 q 942 557 958 530 q 967 516 966 512 q 961 508 959 505 q 954 499 954 485 q 954 479 956 466 q 958 452 957 450 q 956 448 963 445 q 969 442 971 441 q 973 438 973 431 q 973 416 960 379 q 948 342 936 307 q 918 253 912 238 q 899 205 878 173 q 825 92 749 38 q 672 -16 606 -16 q 568 -16 543 73 q 518 162 507 162 q 496 162 430 83 q 363 5 329 -2 q 318 -5 305 -7 q 293 -9 283 -9 q 275 -9 267 -8 q 260 -6 253 2 q 249 7 249 15 q 249 28 248 30 q 217 126 208 158 q 186 245 186 321 q 186 368 196 442 q 199 466 207 508 q 207 519 190 519 q 182 519 165 516 q 127 509 113 509 q 99 509 89 512 q 55 522 44 580 q 39 606 43 609 q 93 614 144 618 q 258 629 354 636 q 487 646 535 646 q 542 646 549 659 q 556 672 562 674 q 567 676 572 676 q 578 676 594 660 q 610 644 634 644 q 643 642 654 642 z m 876 579 q 808 579 742 577 q 675 574 666 561 q 638 561 629 534 q 625 520 618 488 q 611 455 607 411 q 603 366 603 325 q 603 233 618 165 q 633 98 659 98 q 662 98 666 99 q 729 123 788 208 q 837 280 871 372 q 902 456 902 503 q 902 513 899 519 q 898 522 898 528 q 898 533 900 545 q 902 556 902 559 q 902 569 897 574 q 892 579 876 579 z m 512 408 l 512 441 q 512 449 517 471 q 531 525 531 539 q 531 558 521 558 q 443 558 348 546 q 254 533 254 519 q 254 517 258 515 q 262 512 270 500 q 277 488 285 487 q 297 490 308 494 q 317 492 325 486 q 332 479 332 472 q 332 469 329 466 q 313 450 303 395 q 294 341 294 278 q 294 229 299 196 q 302 178 304 159 q 310 125 334 115 q 342 112 347 109 q 353 107 357 107 q 362 107 366 111 q 380 125 414 177 q 452 237 478 294 q 512 366 512 408 z"},"A":{"x_min":0,"x_max":610,"ha":610,"o":"m 411 152 q 411 157 413 166 q 415 175 415 180 q 415 188 410 192 q 404 196 388 196 q 338 196 325 196 q 313 196 300 196 q 282 188 274 181 q 265 175 252 157 q 133 18 125 7 q 116 -3 105 -13 q 95 -22 85 -22 q 68 -22 60 15 q 51 52 46 73 q 37 112 37 122 q 38 123 38 125 q 41 124 44 118 q 52 103 83 103 q 108 103 133 115 q 163 130 185 159 q 203 184 222 208 q 223 210 225 212 q 226 214 231 219 q 284 282 316 331 q 353 387 385 459 q 409 513 422 530 q 432 544 440 544 q 447 542 451 542 q 457 542 466 552 q 468 554 485 594 q 495 618 531 628 q 542 632 544 632 q 553 634 561 634 q 569 634 579 630 q 574 602 568 575 q 555 502 547 448 q 535 364 535 309 q 535 305 532 300 q 522 285 522 284 q 519 275 526 258 q 530 248 530 243 q 530 242 528 235 q 518 207 510 171 q 502 135 502 112 q 502 83 515 83 q 519 83 526 86 q 532 89 553 105 q 556 107 562 111 l 562 74 q 569 74 571 72 q 577 65 553 49 q 528 33 509 28 q 501 25 483 1 q 475 -11 464 -13 q 453 -16 445 -16 q 438 -16 435 -15 q 416 -12 402 2 q 388 15 386 29 q 386 38 398 89 q 411 140 411 152 z m 448 426 q 448 436 448 440 q 447 442 440 454 q 431 452 422 449 q 395 423 385 388 q 384 379 384 375 q 383 368 380 362 q 365 343 358 333 q 335 302 334 291 q 328 275 323 259 q 323 246 349 246 q 354 245 363 245 q 372 244 375 244 q 389 244 397 248 q 410 255 418 264 q 426 273 425 285 q 433 328 440 367 q 448 405 448 426 z"},"f":{"x_min":0,"x_max":267,"ha":267,"o":"m 288 699 q 290 688 290 682 q 290 675 284 669 q 249 642 242 629 q 215 585 201 471 q 199 462 199 447 q 199 429 203 423 q 208 418 218 418 q 222 418 232 419 q 241 420 242 420 q 248 420 254 418 q 274 416 281 415 q 288 414 286 408 q 278 386 266 377 q 255 368 217 355 q 194 348 190 338 q 185 327 182 318 q 177 306 168 249 q 164 226 152 140 q 144 78 138 51 q 136 37 136 27 q 136 4 148 -4 q 152 -6 162 -7 q 156 -11 154 -15 q 145 -27 143 -50 q 140 -74 125 -88 q 110 -102 88 -102 q 67 -102 50 -86 q 32 -70 32 -46 q 37 -19 42 7 q 55 85 63 128 q 82 234 85 256 q 91 277 93 291 q 96 305 96 316 q 96 332 88 342 q 83 347 74 347 q 61 345 55 345 q 45 345 42 351 q 59 365 68 374 q 97 401 106 422 q 121 455 129 505 q 154 650 159 667 q 174 715 196 737 q 218 759 243 759 q 258 759 271 751 q 285 742 293 729 q 292 722 292 714 q 291 706 288 699 z"},"Q":{"x_min":0,"x_max":587,"ha":587,"o":"m 298 577 q 309 585 355 608 q 389 625 395 635 q 398 641 429 622 q 475 594 488 588 q 502 582 506 577 q 511 570 515 565 q 529 548 534 523 q 537 491 541 468 q 545 445 548 406 q 552 367 552 335 q 552 268 539 225 q 524 176 492 164 q 481 160 478 142 q 475 124 473 120 q 468 109 445 93 q 426 79 426 64 q 426 55 432 42 q 442 18 513 -25 q 545 -43 545 -53 q 545 -62 528 -69 q 526 -71 522 -67 q 518 -62 516 -62 q 515 -62 512 -69 q 508 -90 490 -107 q 472 -123 452 -123 q 437 -123 424 -113 q 412 -102 402 -78 q 397 -68 391 -64 q 385 -60 380 -60 q 374 -60 374 -55 q 375 -41 375 -32 q 375 -15 371 -5 q 367 4 355 0 q 328 -8 295 -15 q 262 -22 233 -22 q 158 -22 116 19 q 62 72 62 189 q 62 215 61 223 q 59 232 56 232 q 50 225 48 222 q 45 222 44 222 q 41 234 41 239 q 41 246 44 252 q 44 272 86 356 q 135 454 177 491 q 219 528 238 542 q 268 558 298 577 z m 434 252 q 437 261 440 287 q 442 312 452 335 q 454 338 454 343 q 454 347 450 359 q 445 371 445 376 q 448 390 452 404 q 452 409 446 416 q 440 422 438 428 q 437 433 437 437 q 437 444 439 454 q 441 464 441 465 q 441 496 418 527 q 395 558 378 558 q 291 558 224 430 q 166 318 166 217 q 166 174 188 118 q 216 45 258 45 q 270 45 282 50 q 295 55 309 67 q 315 72 315 74 q 315 75 299 78 q 283 82 283 95 q 283 102 286 108 q 288 113 266 122 q 263 125 261 129 l 312 159 q 324 145 331 139 q 353 120 369 125 q 378 127 399 169 q 421 212 434 252 z"},"w":{"x_min":0,"x_max":592,"ha":592,"o":"m 69 346 q 87 376 113 397 q 138 418 152 413 q 161 410 168 405 q 175 400 178 392 q 181 385 172 358 q 150 290 150 268 q 150 256 147 234 q 140 183 140 175 q 140 158 148 158 q 151 158 157 162 q 167 168 174 187 q 182 205 185 210 q 187 213 202 231 q 209 239 215 249 q 223 264 263 341 q 292 396 298 402 q 305 408 323 408 q 337 408 350 402 q 364 395 358 388 q 338 364 328 313 q 318 262 318 202 q 318 182 316 165 q 311 104 311 100 q 311 70 319 55 q 327 39 348 39 q 389 39 428 116 q 465 188 465 252 q 465 279 456 293 q 447 308 430 305 q 412 303 410 313 q 408 324 407 325 q 403 322 400 322 q 398 322 389 328 q 381 334 372 339 q 373 342 375 345 q 404 352 406 358 q 419 389 433 400 q 446 411 464 411 q 476 411 505 392 q 515 385 533 372 q 542 346 552 321 q 561 295 561 270 q 561 130 522 115 q 507 109 492 104 q 485 98 472 72 q 466 60 459 53 q 447 43 435 34 q 426 19 403 3 q 373 -18 348 -18 q 344 -18 335 -16 q 325 -12 316 -9 l 305 -12 q 298 -12 296 -12 q 248 -12 228 43 q 216 78 216 128 q 216 135 216 141 q 216 142 217 145 q 216 154 213 154 q 206 154 165 75 q 122 -8 104 -18 q 98 -22 90 -22 q 76 -22 62 -12 q 47 -3 39 12 q 38 13 38 21 q 38 42 56 147 q 74 252 74 272 q 74 282 73 287 q 69 302 54 302 q 49 302 47 301 q 42 300 38 307 q 35 313 35 322 q 35 329 37 332 q 39 338 52 339 q 65 340 69 346 z"},"-":{"x_min":0,"x_max":355,"ha":355,"o":"m 335 332 l 308 305 l 308 270 q 308 251 286 241 q 278 238 243 228 q 232 225 211 224 q 190 222 162 222 q 135 222 114 224 q 93 225 88 228 q 68 228 52 236 q 36 244 36 261 q 36 269 40 277 q 52 288 60 293 q 84 309 102 309 q 171 309 197 309 q 222 309 257 309 z"},"E":{"x_min":0,"x_max":494,"ha":494,"o":"m 340 328 q 276 318 224 276 q 162 227 162 162 q 162 108 193 82 q 219 60 263 60 q 292 60 317 68 q 341 76 376 95 q 388 102 407 113 q 418 115 422 115 q 428 115 428 106 q 428 96 418 67 q 417 63 408 61 q 398 59 395 55 q 393 52 393 48 q 393 42 397 33 q 400 23 400 21 q 400 18 391 16 q 382 15 351 -9 q 338 -19 325 -19 q 320 -19 317 -18 q 311 -17 302 -8 q 292 0 285 0 q 277 0 266 -9 q 255 -18 248 -18 q 242 -18 218 -4 q 208 2 199 0 q 194 -2 190 -5 q 178 -18 176 -18 q 162 -25 152 -25 q 133 -25 113 -12 q 108 -8 75 18 q 62 45 55 60 q 35 105 35 118 q 35 139 50 174 q 65 209 86 242 q 104 268 145 297 q 219 348 218 358 q 216 369 192 389 q 178 400 176 411 q 174 422 174 432 q 174 448 183 468 q 192 481 202 494 q 203 498 203 505 q 203 520 204 524 q 208 537 218 546 q 233 557 241 563 q 280 597 316 614 q 352 631 394 631 q 428 631 465 618 q 464 614 463 611 q 458 588 458 582 q 458 574 461 564 q 462 561 465 554 q 458 547 446 547 q 437 547 430 552 q 400 573 369 573 q 332 573 306 541 q 280 508 280 468 q 280 438 296 415 q 312 392 345 383 q 343 378 342 372 q 333 360 333 355 q 333 348 336 338 q 337 335 340 328 z"},"s":{"x_min":0,"x_max":323,"ha":323,"o":"m 291 399 q 293 391 282 381 q 278 378 268 372 q 273 367 275 364 q 276 360 275 358 l 258 328 q 253 324 233 334 q 212 344 202 344 q 190 344 182 337 q 170 327 165 317 q 161 308 161 297 q 161 274 214 225 q 268 176 268 143 q 268 128 261 105 q 258 97 254 83 q 237 75 205 52 q 169 25 134 0 q 123 -5 108 -5 q 83 -5 60 6 q 37 16 37 29 q 37 33 39 37 q 45 45 47 63 q 50 81 59 82 q 68 84 79 86 q 87 86 92 83 q 98 79 102 69 q 108 58 127 58 q 146 58 162 68 q 180 82 180 100 q 180 106 178 113 q 165 151 103 196 q 79 214 79 245 q 79 312 104 344 q 112 354 129 362 q 133 365 130 373 q 127 381 129 383 q 142 396 165 402 q 188 408 215 408 q 242 408 268 404 q 277 403 291 399 z"},"l":{"x_min":0,"x_max":218,"ha":218,"o":"m 198 501 q 173 378 154 269 q 132 145 132 111 q 132 88 138 78 q 147 63 173 58 q 170 46 168 35 q 142 -14 113 -14 q 106 -14 99 -9 l 58 -7 q 40 12 35 46 q 34 52 33 58 q 33 65 33 68 q 33 72 35 83 q 42 128 47 140 q 51 152 55 152 q 58 152 60 162 q 67 205 82 278 q 94 339 102 384 q 113 450 120 524 q 122 543 125 568 q 128 592 128 605 q 128 632 118 665 q 116 668 108 680 q 100 692 102 702 q 103 711 114 711 q 125 709 131 709 q 138 709 145 712 q 151 715 157 722 q 160 726 163 721 q 166 715 171 708 q 175 705 185 712 q 210 731 214 731 q 222 731 227 718 q 231 705 231 669 q 231 618 224 585 q 211 543 198 501 z"},"8":{"x_min":0,"x_max":488,"ha":488,"o":"m 336 342 q 331 331 355 308 q 418 249 424 222 q 427 203 430 185 q 430 175 426 166 q 419 157 412 148 q 412 101 392 88 q 369 76 348 65 q 338 56 326 33 q 313 11 212 -2 q 193 -5 176 -5 q 115 -5 81 26 q 46 57 38 111 q 37 125 37 130 q 37 157 49 183 q 58 202 80 233 q 91 248 126 265 q 162 282 168 305 q 168 307 139 332 q 105 362 105 429 q 105 530 168 581 q 219 622 298 622 q 365 622 405 595 q 416 592 422 588 q 433 581 438 565 q 441 548 445 532 q 450 515 450 496 q 450 437 393 383 q 375 365 336 342 z m 336 524 q 333 532 331 539 q 327 548 320 552 q 318 553 312 553 q 293 553 292 554 q 285 562 278 565 q 271 568 263 568 q 242 568 224 544 q 207 520 202 492 q 200 482 200 478 q 200 470 205 456 q 209 442 212 434 q 225 395 228 389 q 238 368 260 362 q 262 362 269 362 q 276 362 281 360 q 286 355 292 352 q 295 351 297 351 q 305 368 313 377 q 330 395 332 399 q 340 420 342 434 q 343 448 343 485 q 343 506 336 524 z m 223 272 q 218 274 214 274 q 208 274 205 274 q 184 274 171 262 q 161 252 152 228 q 148 217 147 203 q 145 189 145 175 q 145 125 171 102 q 194 81 237 81 q 276 81 305 106 q 334 131 334 168 q 334 184 330 195 q 325 205 316 219 q 306 232 276 250 q 246 268 223 272 z"},"e":{"x_min":0,"x_max":364,"ha":364,"o":"m 178 2 q 176 1 174 -4 q 172 -9 162 -9 q 146 -9 133 -12 q 120 -15 116 -15 q 115 -15 105 -14 q 76 -8 52 32 q 32 66 32 91 q 32 95 33 98 q 35 102 38 154 q 40 205 52 234 q 58 248 75 272 q 119 330 130 349 q 132 354 145 357 q 157 361 159 363 q 182 381 219 394 q 255 407 284 407 q 311 407 321 394 q 325 388 328 382 q 332 375 332 363 q 332 358 329 352 q 327 347 324 340 q 323 333 322 326 q 320 318 320 315 q 320 310 322 303 q 323 301 328 296 q 332 292 332 288 q 332 284 327 280 q 322 277 321 275 q 309 253 284 232 q 268 220 242 205 q 235 205 227 205 q 217 195 202 192 q 187 189 168 189 q 147 189 145 186 l 135 165 l 130 157 q 130 147 130 139 q 131 132 133 125 q 133 123 139 118 q 139 115 139 112 q 138 108 138 103 q 138 92 140 86 q 141 80 145 75 q 159 62 178 62 q 198 62 233 80 q 240 82 247 85 q 248 83 249 76 q 250 68 250 64 q 250 34 219 17 q 218 17 178 2 z m 182 320 q 175 310 162 285 q 145 254 145 242 q 145 236 148 235 q 152 234 160 233 q 169 232 176 232 q 196 232 212 248 q 227 263 242 278 q 252 285 252 306 q 252 327 239 338 q 232 345 222 345 q 210 345 196 335 q 188 328 182 320 z"},"b":{"x_min":0,"x_max":415,"ha":415,"o":"m 348 404 q 378 390 391 363 q 403 335 403 295 q 403 275 398 257 q 398 252 392 233 q 391 228 388 222 q 385 216 385 215 q 378 196 372 178 q 365 161 350 150 q 342 145 334 141 q 292 90 246 55 q 190 13 147 9 q 141 9 135 -3 q 128 -16 122 -16 q 80 -16 58 10 q 32 41 32 106 q 32 128 58 237 q 75 302 85 369 q 91 412 105 462 q 115 499 126 538 q 128 545 128 559 q 128 567 127 579 q 125 591 123 615 q 121 639 112 678 q 110 683 108 688 q 119 697 126 702 q 148 715 163 715 q 180 717 191 718 q 202 719 205 719 q 222 719 232 712 q 242 705 242 685 q 242 681 242 678 q 238 642 221 573 q 205 505 188 437 q 172 369 172 355 q 172 348 175 348 q 208 348 260 378 q 312 408 330 408 q 338 408 342 407 q 346 405 348 404 z m 269 159 q 281 173 282 197 q 284 221 285 238 q 285 244 287 255 q 288 265 288 272 q 285 291 278 305 q 270 318 255 323 q 252 325 244 325 q 205 325 156 239 q 115 165 115 145 q 121 85 162 85 q 209 85 269 159 z"},"%":{"x_min":0,"x_max":681,"ha":681,"o":"m 340 180 q 340 238 417 325 q 495 412 554 412 q 569 412 580 406 q 591 400 601 392 q 618 376 636 362 q 642 358 642 348 q 640 335 639 328 l 647 318 q 647 184 609 145 q 595 134 582 123 q 550 78 518 33 q 490 -3 439 -3 q 405 -4 398 -4 q 394 -4 390 -2 q 388 -2 379 5 q 367 13 362 33 q 355 65 355 66 q 353 71 349 75 q 345 78 342 82 q 341 92 339 96 q 338 99 338 102 q 339 110 340 135 q 340 159 340 180 z m 182 134 q 185 141 189 146 q 197 154 205 162 q 225 187 248 219 q 279 265 288 278 q 332 339 374 391 q 376 393 455 489 q 498 542 544 600 l 555 628 l 587 625 q 587 622 589 618 q 592 615 592 612 q 592 607 587 598 q 577 582 554 558 q 535 538 516 523 q 514 522 508 511 q 502 501 499 494 l 453 425 q 359 308 265 192 l 255 174 l 228 140 l 213 115 q 210 110 182 75 q 111 -15 110 -15 q 107 -19 104 -35 q 101 -33 85 -30 q 69 -27 69 -23 q 69 -19 78 -14 q 111 28 127 50 q 178 118 182 134 z m 39 404 q 43 446 105 528 q 171 618 219 625 q 230 627 243 622 q 265 612 268 612 q 272 615 281 615 q 290 615 298 616 q 308 595 315 564 q 316 559 318 552 q 325 541 328 525 q 331 508 331 493 q 331 474 328 452 q 325 431 318 408 q 312 385 295 352 q 271 301 242 275 q 235 268 222 259 q 210 251 204 246 q 198 241 188 222 q 180 208 168 203 q 162 201 158 201 q 153 201 142 205 q 130 210 118 210 q 112 209 108 209 q 79 206 61 227 q 43 248 37 288 q 36 292 35 301 q 33 309 33 318 q 33 337 35 362 q 38 386 39 404 z m 533 178 q 536 188 540 206 q 543 224 546 241 l 548 245 l 549 275 l 548 285 q 548 298 548 305 q 548 317 545 324 q 541 332 525 338 q 507 347 473 297 q 438 246 436 214 q 433 182 432 161 q 431 141 431 122 q 431 85 435 73 q 440 60 448 60 q 450 60 455 62 q 488 74 506 108 q 515 125 533 178 z m 152 275 q 195 295 204 318 q 214 341 224 365 q 233 374 238 399 q 243 425 243 458 q 243 500 237 527 q 230 554 217 552 q 195 548 172 520 q 148 492 143 466 q 135 435 128 404 q 125 387 125 367 l 127 342 l 125 298 q 125 288 130 280 q 136 272 145 272 q 148 272 152 275 z"},"m":{"x_min":0,"x_max":693,"ha":693,"o":"m 407 411 q 437 402 437 381 q 437 375 435 367 q 430 363 426 360 q 429 348 430 340 q 431 331 431 320 q 431 304 430 298 q 429 292 428 288 q 425 282 425 263 q 425 251 427 247 q 428 244 432 247 q 487 316 537 359 q 591 406 631 406 l 661 406 q 661 386 659 373 q 658 359 656 346 q 654 332 645 312 q 628 272 631 263 q 632 262 636 260 q 641 258 640 256 q 628 239 622 227 q 615 215 615 205 q 615 198 617 187 q 619 175 619 168 q 619 158 615 150 q 606 136 603 122 q 594 83 594 69 q 594 53 607 43 q 621 34 626 28 q 626 25 626 23 q 617 24 609 24 q 590 24 570 17 q 550 11 528 -10 q 518 -19 510 -19 q 501 -19 497 -8 q 492 3 492 14 q 492 32 519 132 q 546 232 546 262 q 546 281 538 282 q 516 286 447 194 q 377 102 366 53 q 359 25 328 3 q 300 -15 280 -15 q 269 -15 271 -9 q 278 29 281 50 q 292 112 298 127 q 299 129 305 133 q 312 136 312 141 q 312 151 322 201 q 331 251 331 268 q 331 277 329 281 q 328 285 324 284 q 268 268 222 212 q 186 168 158 105 q 153 96 125 23 q 124 19 118 22 q 103 28 100 25 q 87 12 71 5 q 55 -2 45 -7 q 42 -8 39 -8 q 36 -6 36 2 q 36 18 49 60 q 68 115 86 171 q 90 185 92 194 q 93 204 93 209 q 93 215 91 222 q 89 229 91 238 q 92 248 98 265 q 105 282 105 293 q 105 299 108 320 q 110 328 110 334 q 110 345 103 353 q 97 361 77 367 q 81 375 85 384 q 122 416 156 416 q 165 416 172 413 q 178 404 188 398 q 189 398 197 398 q 202 398 206 390 q 208 385 208 378 q 208 369 197 332 q 189 307 187 292 q 184 278 184 275 q 184 260 195 260 q 205 260 220 271 q 235 282 248 295 q 301 357 349 388 q 391 415 407 411 z"},",":{"x_min":0,"x_max":195,"ha":195,"o":"m 172 102 q 174 99 174 92 q 174 65 125 -23 q 92 -82 89 -88 q 83 -100 65 -100 q 60 -100 48 -98 q 35 -96 32 -95 q 22 -92 25 -85 q 38 -62 50 -40 q 62 -17 67 -1 q 72 15 78 68 q 80 90 85 101 q 89 112 103 120 q 116 128 131 128 q 143 128 154 121 q 165 115 172 102 z"},"n":{"x_min":0,"x_max":429,"ha":429,"o":"m 34 17 q 58 76 70 133 q 83 190 83 248 q 83 267 80 289 q 76 312 75 323 q 72 327 71 328 q 59 342 63 348 q 65 350 72 350 q 78 351 80 354 q 94 377 125 393 q 141 396 157 400 q 158 398 158 392 q 159 387 160 375 q 160 366 162 366 q 167 366 168 359 q 169 352 169 338 l 168 326 q 165 318 165 314 q 165 308 165 305 q 165 289 170 284 q 172 282 263 349 q 315 388 350 397 q 371 402 386 373 q 402 343 398 321 q 390 269 381 241 q 361 176 359 166 q 355 145 352 133 q 348 122 348 121 q 348 120 352 107 q 356 94 362 91 q 368 88 369 85 q 373 72 373 65 q 373 55 364 49 q 355 44 346 38 q 335 30 334 22 q 333 13 332 6 q 326 -5 312 -5 q 296 -4 287 -4 q 278 -4 268 -6 q 264 -7 262 -3 q 259 2 259 10 q 259 28 278 117 q 296 206 296 246 q 296 279 286 292 q 282 296 278 296 q 272 296 263 290 q 253 283 249 280 q 215 255 175 188 q 135 122 135 87 q 135 62 138 56 q 141 50 143 45 q 145 39 145 35 q 145 27 134 20 q 123 13 95 5 q 68 -2 65 -3 q 64 -7 49 -14 q 47 -15 42 -15 q 30 -15 30 1 q 30 7 34 17 z"},"h":{"x_min":0,"x_max":438,"ha":438,"o":"m 65 -2 q 41 5 35 28 q 34 34 34 40 q 34 64 63 188 q 81 263 86 301 q 92 338 117 445 q 138 535 138 576 q 138 602 133 620 q 128 638 116 653 q 113 657 110 659 q 109 660 108 661 q 113 659 117 659 q 125 659 134 663 q 147 669 162 683 q 187 705 205 705 q 218 705 228 690 q 238 674 238 646 q 238 597 219 524 q 199 452 181 385 q 160 307 160 265 q 160 248 169 247 q 177 245 214 285 q 239 313 249 322 q 258 331 301 378 q 328 408 339 411 q 349 413 355 413 q 379 413 393 386 q 400 372 407 358 q 408 355 408 348 q 408 332 394 288 q 349 157 347 148 q 345 138 344 135 q 341 122 341 113 q 341 98 349 88 q 353 82 368 75 q 370 74 375 72 q 370 48 358 33 q 347 18 345 8 q 342 -1 334 -1 q 330 -1 320 2 q 310 4 304 4 q 297 4 294 2 q 290 1 287 -3 q 280 -11 275 -12 q 264 -14 256 -8 q 248 -2 242 8 q 236 18 236 26 q 236 32 238 40 q 239 48 241 55 q 267 147 294 239 q 294 258 287 275 q 285 280 279 280 q 249 280 189 192 q 123 95 114 12 q 113 1 107 -4 q 102 -8 93 -8 q 87 -8 83 -8 q 70 -3 65 -2 z"},"z":{"x_min":0,"x_max":375,"ha":375,"o":"m 222 318 q 215 319 212 319 q 204 319 195 317 q 186 315 178 314 l 168 312 q 153 308 138 308 q 122 308 105 313 q 88 318 73 322 q 55 328 60 339 l 65 346 q 67 351 68 360 q 68 368 68 369 q 68 374 68 379 q 68 381 68 383 l 97 419 q 102 402 110 397 q 118 391 131 391 q 135 391 144 392 q 154 392 159 392 q 215 392 253 393 q 292 393 332 395 q 332 389 332 382 q 332 374 331 362 q 330 351 330 348 q 289 286 249 224 q 246 216 243 208 q 239 199 235 194 q 233 191 225 188 q 217 185 211 172 q 188 145 174 124 q 159 102 152 81 q 164 75 171 73 q 194 65 208 65 l 346 69 q 346 42 340 38 q 333 35 328 32 q 325 23 322 15 q 318 7 311 2 q 306 -2 295 -5 q 275 -14 254 -23 q 241 -28 221 -29 q 201 -31 199 -31 q 165 -31 122 -20 q 95 -12 83 -8 q 72 -5 65 -5 q 59 -5 51 -10 q 46 6 44 15 q 37 44 37 59 q 37 70 42 72 q 71 78 148 182 q 225 285 225 313 q 225 318 222 318 z"},"B":{"x_min":0,"x_max":718,"ha":718,"o":"m 394 265 q 393 262 386 260 q 378 258 378 254 q 358 155 294 91 q 256 53 186 16 q 181 13 170 0 q 160 -14 149 -14 q 145 -14 141 -10 q 133 -3 108 9 q 72 27 55 59 q 38 91 38 134 q 38 207 81 286 q 124 365 179 402 q 187 406 195 411 q 255 477 279 500 q 324 543 362 565 q 409 592 470 605 q 484 608 497 608 q 509 609 525 609 q 536 609 547 609 q 557 608 567 608 q 588 608 599 612 q 612 615 646 598 q 657 593 678 582 q 683 577 683 565 q 682 556 682 552 q 680 545 680 540 q 680 521 653 483 q 626 445 613 445 q 610 445 610 441 q 610 435 611 430 q 611 424 608 422 q 566 401 541 385 q 516 369 516 358 q 516 332 530 302 q 548 264 590 212 q 605 194 613 177 q 620 160 620 146 q 620 126 605 108 q 595 95 574 81 q 564 73 556 63 q 537 36 532 32 q 523 25 501 14 q 488 8 476 -1 q 464 -9 450 -14 q 435 -18 425 -18 q 389 -18 365 20 q 345 52 345 79 q 345 91 350 90 q 365 83 380 76 q 382 76 388 78 q 393 81 396 81 q 402 81 412 76 q 422 72 428 72 q 466 72 488 107 q 507 138 507 182 q 507 232 476 289 q 442 342 439 348 q 435 355 435 358 q 435 363 460 380 q 484 398 507 418 q 522 431 533 472 q 545 514 545 547 q 545 565 542 573 q 538 582 530 579 q 491 568 449 540 q 435 530 332 443 q 328 440 313 415 q 307 405 299 402 q 224 367 162 258 q 106 162 106 104 q 106 81 119 81 q 162 81 199 111 q 234 142 269 173 q 280 181 284 184 q 292 190 297 196 q 329 234 346 293 q 363 367 375 411 q 381 428 390 441 q 400 453 408 453 q 418 453 418 434 q 418 427 417 422 q 405 345 403 315 q 402 285 394 265 z"},"K":{"x_min":0,"x_max":602,"ha":602,"o":"m 306 372 q 282 352 282 333 q 282 318 299 305 q 375 218 422 172 q 472 122 502 122 q 514 122 535 129 q 542 132 553 136 l 576 115 q 576 114 576 112 q 552 77 549 69 q 546 61 545 48 q 543 36 539 30 q 535 25 527 22 q 508 15 505 10 q 502 5 502 -2 q 502 -9 502 -12 q 502 -20 500 -23 q 491 -25 486 -25 q 453 -25 418 2 q 378 34 350 92 q 334 127 275 196 q 217 265 207 261 q 197 256 193 246 q 188 236 188 221 q 188 211 191 188 q 193 166 193 155 q 193 136 188 127 q 178 119 174 113 q 170 107 170 96 q 170 91 172 79 q 175 68 175 62 q 175 55 172 48 q 162 23 153 10 q 139 -10 122 -10 q 113 -10 103 -5 q 98 -2 88 -5 q 78 -9 75 -9 q 52 -9 44 -5 q 35 0 34 9 q 32 18 52 32 q 58 36 71 44 q 69 50 69 53 q 67 68 67 74 q 67 78 67 82 q 68 86 68 88 q 70 95 78 104 q 86 114 87 120 q 88 124 88 132 q 88 141 86 157 q 84 172 84 177 q 84 186 85 191 q 85 195 89 205 q 112 262 118 291 q 129 337 129 383 q 129 404 128 415 q 128 426 124 450 q 123 455 129 463 q 135 471 135 475 q 135 492 103 502 q 72 511 71 517 q 69 532 83 542 q 96 553 110 563 q 141 597 156 612 q 184 640 204 640 q 217 640 229 629 q 241 618 247 609 q 252 600 252 593 q 252 588 244 571 q 239 561 239 554 q 239 530 232 482 q 228 455 228 439 q 228 433 229 426 q 230 419 230 415 q 231 409 237 409 q 253 409 322 465 q 436 559 450 570 q 525 627 555 627 q 572 627 576 612 q 578 608 578 603 q 578 599 575 597 q 571 594 570 591 q 571 588 573 585 q 575 581 575 577 q 575 572 574 568 q 563 537 509 498 q 476 475 403 433 q 329 391 306 372 z"},"R":{"x_min":0,"x_max":725,"ha":725,"o":"m 425 150 q 425 162 425 170 q 421 238 421 298 q 421 308 416 322 q 412 335 405 335 q 401 335 396 325 q 391 315 386 293 q 378 258 376 234 q 373 209 373 192 q 374 174 374 169 q 374 161 370 157 q 334 114 307 87 q 263 42 225 16 q 176 -17 141 -17 q 118 -17 99 -3 q 81 11 68 42 q 65 48 65 51 q 65 53 67 59 q 69 65 69 68 q 69 75 67 83 q 65 91 55 112 q 46 133 42 153 q 38 172 38 193 q 38 219 45 240 q 64 301 103 365 q 152 444 213 495 q 287 558 368 568 q 381 569 398 589 q 415 609 437 609 q 447 609 457 609 q 464 608 472 607 q 490 607 505 610 q 548 619 555 619 q 564 619 568 618 q 608 613 628 604 q 656 592 675 565 q 686 548 692 536 q 698 524 698 508 q 698 494 686 472 q 675 451 675 434 q 675 406 592 364 q 563 348 515 328 q 498 321 491 314 q 484 307 484 300 q 484 296 488 286 q 492 276 492 270 q 492 252 508 228 q 523 203 525 187 q 532 115 550 53 q 573 -29 598 -29 q 609 -29 619 -14 l 603 -99 q 597 -112 575 -120 q 554 -128 529 -128 q 508 -128 493 -121 q 478 -114 474 -97 q 463 -62 453 -28 q 443 6 443 17 q 445 27 446 36 q 448 45 449 52 q 449 54 448 65 q 443 102 441 120 q 439 137 432 145 q 430 148 425 150 z m 414 547 q 362 529 322 500 q 270 462 229 402 q 199 357 172 288 q 137 202 137 147 q 137 118 146 101 q 155 84 176 78 q 212 69 280 187 q 348 305 384 443 q 386 452 395 458 q 403 465 415 465 q 418 465 421 464 q 441 457 441 441 q 441 436 439 434 q 425 408 418 395 q 404 365 404 353 q 404 348 407 346 q 416 341 424 341 q 428 341 432 344 q 434 345 435 349 q 437 354 439 355 q 441 357 455 362 q 481 374 484 375 q 495 382 511 395 q 566 439 566 478 q 566 496 556 518 q 546 540 528 550 q 509 561 484 561 q 469 561 450 557 q 432 553 414 547 z"},"T":{"x_min":0,"x_max":723,"ha":723,"o":"m 436 473 q 430 462 418 450 q 411 443 404 436 q 398 429 392 422 q 387 414 385 398 q 382 383 379 377 q 376 372 371 365 q 366 358 364 353 q 362 348 362 335 q 362 328 362 324 q 362 315 360 310 q 358 305 355 298 q 345 278 344 275 q 339 257 339 240 q 339 221 344 200 q 351 175 353 167 q 355 158 370 145 q 379 138 383 132 q 393 108 404 85 q 416 68 435 60 q 455 52 477 52 q 515 52 551 70 q 588 87 607 113 q 608 109 608 106 q 605 81 595 62 q 596 62 605 54 q 610 49 607 46 q 582 22 555 12 q 536 4 517 4 q 511 4 501 5 q 492 5 489 5 q 473 -4 464 -6 q 455 -8 445 -8 q 440 -8 431 -7 q 422 -5 416 -5 q 413 -5 404 -7 l 392 -9 q 378 -11 372 -11 q 322 -11 283 18 q 245 48 240 95 q 239 101 239 112 q 239 117 240 125 q 242 134 242 138 l 212 148 q 207 148 207 172 q 207 225 229 294 q 257 379 302 415 q 315 425 329 450 q 343 475 358 487 q 362 491 379 498 q 395 505 399 515 q 405 531 382 536 q 372 538 355 538 q 340 538 331 537 q 322 536 314 535 q 312 535 306 531 q 301 526 298 526 q 293 526 286 530 q 278 534 275 533 q 236 523 187 483 q 125 433 108 376 q 105 366 104 352 q 102 338 102 325 q 102 310 103 297 q 104 284 105 272 q 104 265 104 263 q 103 255 118 242 q 134 229 127 224 q 123 221 115 221 q 110 221 103 222 q 101 222 97 224 l 62 258 q 63 269 63 275 q 63 279 62 282 q 62 286 37 301 q 28 306 32 312 q 46 382 68 436 q 89 490 125 508 q 130 511 130 514 q 130 515 122 525 q 115 535 115 545 q 115 552 117 559 q 120 566 149 574 q 178 582 189 588 q 239 619 249 623 q 267 630 290 630 q 295 631 299 631 q 325 631 363 612 q 402 593 426 591 q 450 588 469 588 q 490 588 511 592 q 532 595 553 607 q 575 619 588 619 q 594 619 599 618 q 605 617 614 612 q 623 606 628 605 q 635 603 648 606 q 661 608 663 608 q 671 608 676 602 q 681 596 681 585 q 681 577 681 570 q 683 558 685 547 q 685 528 669 518 q 653 508 629 508 q 612 508 597 513 q 582 518 568 521 q 554 523 536 523 q 505 523 478 512 q 452 501 436 473 z"},"P":{"x_min":0,"x_max":642,"ha":642,"o":"m 52 48 q 52 70 47 113 q 43 157 43 168 q 43 184 47 202 q 51 219 61 235 q 88 275 91 284 q 124 377 148 407 q 175 441 308 549 q 346 581 404 602 q 462 622 512 622 q 553 622 579 607 q 605 592 610 561 q 612 555 612 542 q 612 530 612 517 q 612 495 611 475 q 611 456 610 441 q 604 378 588 327 q 571 271 529 245 q 526 243 521 245 q 515 247 513 247 q 506 246 500 236 q 494 225 490 224 q 486 222 478 222 q 471 221 467 219 q 461 217 452 208 q 444 200 437 198 q 424 195 404 214 q 385 233 379 231 q 366 225 365 223 q 358 218 356 210 q 345 156 328 132 q 309 112 303 104 q 259 45 215 18 q 179 -4 145 -4 q 108 -4 76 22 q 66 31 52 48 z m 522 411 q 528 427 530 455 q 532 482 532 501 q 532 510 532 516 q 532 522 532 526 q 512 528 496 529 q 480 530 475 530 q 458 530 449 529 q 441 528 430 524 q 402 513 390 504 q 378 495 378 488 q 378 480 395 470 q 412 459 412 455 q 411 451 407 443 q 403 435 402 432 q 402 428 402 421 q 402 411 407 392 q 412 373 409 367 q 406 358 403 347 q 401 335 398 326 q 396 317 387 307 q 378 297 378 286 q 378 283 380 274 q 382 265 386 259 q 390 253 395 253 q 400 253 404 258 q 407 261 409 268 q 448 305 478 340 q 512 379 522 411 z m 301 445 q 244 422 178 347 q 99 256 84 164 q 78 152 74 142 q 74 137 79 127 q 92 106 118 95 q 144 84 173 84 q 211 84 240 99 q 270 114 273 138 q 280 185 292 261 q 312 388 312 419 q 312 435 309 441 q 307 448 301 445 z"},"t":{"x_min":0,"x_max":295,"ha":295,"o":"m 138 126 q 138 109 149 95 q 160 80 178 72 q 185 68 195 68 q 207 68 244 78 q 250 78 256 78 q 256 72 252 64 q 245 47 241 35 q 237 23 197 8 q 165 -5 145 -9 q 125 -14 110 -14 q 70 -14 55 18 q 44 39 44 77 q 44 85 44 94 q 44 103 44 104 q 40 117 48 117 q 58 117 58 118 q 58 161 72 242 q 76 268 85 314 q 82 320 80 323 q 72 332 58 332 q 50 332 37 328 q 35 330 34 332 q 35 337 37 344 q 38 348 78 375 q 98 389 106 404 q 112 414 113 439 q 114 465 125 475 q 127 478 134 482 q 141 486 143 489 q 148 494 150 500 q 157 517 159 519 q 168 530 186 539 q 204 548 215 548 q 222 548 224 545 q 225 542 205 479 q 193 444 193 428 q 193 411 200 407 q 206 403 213 403 q 218 403 228 406 q 248 413 252 413 q 259 413 263 404 q 268 395 268 390 q 268 381 250 377 q 233 374 228 369 q 224 358 222 354 q 220 348 213 346 q 207 343 187 338 q 166 334 166 328 q 168 306 159 255 q 138 133 138 126 z"},"M":{"x_min":0,"x_max":870,"ha":870,"o":"m 361 385 q 339 388 296 343 q 250 295 208 218 q 158 129 135 37 q 132 25 131 12 q 132 13 132 14 q 128 3 117 -5 q 105 -12 93 -12 q 81 -12 70 -6 q 59 0 52 14 q 50 16 50 28 q 50 55 58 93 q 65 131 79 157 q 82 163 82 170 q 79 190 77 210 q 78 217 82 225 q 92 244 93 247 q 97 262 98 282 q 100 303 100 325 q 100 365 95 415 q 94 432 91 457 q 87 461 84 461 q 75 461 55 435 q 44 419 38 415 l 38 485 q 38 491 67 531 q 95 572 95 630 q 95 638 108 638 q 135 638 168 613 q 206 584 206 549 q 206 465 196 398 q 185 347 174 295 q 174 292 175 292 q 177 290 185 293 q 194 296 251 375 q 328 482 362 527 q 429 614 458 630 q 472 638 480 638 q 487 638 492 631 q 506 613 511 612 q 508 608 506 601 q 505 594 505 588 q 505 580 505 575 q 505 570 504 568 q 497 542 490 517 q 490 506 497 489 q 504 472 504 462 q 485 432 475 413 q 447 355 447 309 q 447 281 458 258 q 498 300 538 342 q 662 502 685 529 q 775 634 809 634 q 812 634 814 634 q 817 632 818 632 q 829 628 829 598 q 829 557 810 502 q 790 447 780 449 q 770 451 770 442 q 770 431 771 423 q 772 415 772 408 q 772 400 772 397 q 768 379 760 365 q 757 360 746 353 q 735 345 735 337 q 735 332 740 325 q 745 319 746 316 q 748 308 744 298 q 732 272 732 268 q 732 260 737 247 q 742 234 742 226 q 742 218 736 218 q 731 219 728 219 q 719 219 715 212 q 709 199 709 168 q 709 140 706 113 q 702 87 699 59 q 699 52 699 45 q 702 38 702 35 q 707 18 739 6 q 771 -6 772 -14 q 775 -35 748 -54 q 722 -73 702 -73 q 693 -73 693 -67 l 658 -85 q 623 -75 605 -56 q 583 -33 583 6 q 583 18 587 39 q 600 102 630 219 q 648 288 648 317 q 648 342 635 362 q 607 341 578 319 q 537 268 478 175 q 418 82 375 0 q 368 -12 357 -12 q 342 -12 329 3 q 315 19 315 37 q 315 40 317 46 q 332 86 350 193 q 368 301 368 353 q 368 385 361 385 z"},"g":{"x_min":0,"x_max":396,"ha":396,"o":"m 375 288 q 375 190 371 160 q 358 143 350 97 q 332 -6 318 -35 q 302 -59 290 -81 q 255 -146 228 -169 q 188 -205 122 -205 q 91 -205 68 -181 q 45 -157 45 -126 q 45 -118 48 -108 l 50 -102 q 56 -103 62 -105 q 86 -143 96 -143 q 129 -143 161 -128 q 181 -118 212 -95 q 229 -82 240 -32 q 248 7 248 48 q 248 68 248 71 q 247 75 244 74 q 208 48 179 28 q 122 -13 108 -9 q 80 -1 68 6 q 48 17 44 30 q 40 44 38 57 q 37 71 37 83 q 37 135 62 195 q 84 245 94 249 q 97 250 104 248 q 105 248 105 249 q 105 292 161 339 q 207 378 276 411 q 282 413 282 418 q 282 423 275 435 q 269 448 269 454 q 269 458 273 462 q 276 467 282 467 q 288 467 298 455 q 326 426 334 422 l 373 404 q 373 402 374 386 q 375 370 375 288 z m 140 74 q 164 69 218 120 q 236 137 269 173 q 270 172 271 172 q 276 176 276 242 q 276 306 270 331 q 265 356 255 356 q 248 356 241 347 q 234 338 228 330 q 181 277 154 203 q 132 144 132 100 q 132 75 140 74 z"},"j":{"x_min":0,"x_max":238,"ha":238,"o":"m 102 -141 q 91 -145 80 -154 q 70 -163 60 -165 q 51 -167 41 -168 q 36 -170 35 -160 q 33 -149 33 -142 q 33 -121 37 -92 q 41 -64 47 -38 q 65 34 70 58 q 88 145 88 204 q 88 222 88 232 q 88 250 89 267 q 89 283 93 304 q 95 312 68 328 q 66 331 65 335 q 83 337 104 372 q 125 408 138 408 q 146 408 152 400 q 157 392 160 391 q 165 389 168 391 q 174 393 176 393 q 179 393 184 392 q 188 390 196 385 q 203 381 203 358 q 203 338 198 305 q 190 265 187 245 q 183 225 178 205 q 166 165 166 164 q 156 122 141 34 q 123 -65 119 -85 q 108 -138 102 -141 z m 212 543 q 214 535 215 532 q 215 529 215 526 q 215 513 208 505 q 200 497 188 497 q 185 491 176 491 q 172 491 168 492 q 158 495 154 495 q 132 502 131 502 q 119 508 119 523 q 119 528 120 532 q 120 535 116 540 q 112 544 111 548 q 108 561 128 573 q 135 577 143 582 q 145 582 152 578 l 160 588 l 212 588 q 214 580 212 572 q 209 563 209 560 q 209 553 212 543 z"},"i":{"x_min":0,"x_max":245,"ha":245,"o":"m 78 399 q 92 397 106 395 q 112 399 118 404 q 124 401 127 396 q 131 392 134 392 q 141 394 144 395 q 151 396 155 396 q 172 396 180 384 q 185 375 185 358 q 185 345 182 330 q 168 253 155 214 q 131 138 128 119 q 125 101 125 97 q 125 75 140 61 q 155 47 155 41 q 155 37 152 32 q 144 12 113 2 q 82 -8 69 -5 q 52 1 44 19 q 38 32 35 58 q 34 63 34 72 q 34 85 36 93 q 38 102 44 118 q 60 157 69 213 q 78 268 88 321 q 88 324 88 331 q 88 343 84 359 q 79 375 75 393 q 75 398 78 399 z m 125 501 q 119 505 117 513 q 114 521 114 533 q 114 553 122 568 q 128 578 141 582 q 155 587 168 587 q 186 587 201 582 q 216 576 217 570 q 214 566 213 565 q 208 558 208 554 q 207 551 207 546 q 208 537 208 532 q 208 527 207 525 q 202 510 186 501 q 170 492 152 492 q 135 492 125 501 z"},"y":{"x_min":0,"x_max":428,"ha":428,"o":"m 201 -60 q 215 -42 227 -9 q 239 24 239 42 q 239 47 238 48 q 237 51 233 48 q 218 43 203 38 q 116 -18 111 -18 q 99 0 94 11 q 76 45 76 67 q 73 75 73 85 q 73 92 75 102 q 81 127 81 136 q 81 206 62 296 q 55 326 42 374 q 57 386 66 392 q 96 412 118 412 q 124 412 127 411 q 151 405 162 399 q 178 390 175 374 q 175 368 170 363 q 165 358 164 355 q 159 342 159 330 q 159 321 162 309 q 165 300 168 291 q 168 287 163 282 q 158 276 159 272 q 160 271 165 269 q 169 268 171 265 q 173 261 162 236 q 155 221 155 211 q 155 168 162 130 q 170 92 185 81 q 195 72 220 102 q 245 131 262 180 q 284 238 284 298 q 284 309 276 325 q 268 340 270 351 q 272 365 286 370 q 321 384 325 408 q 345 397 365 386 q 404 353 399 342 q 375 287 358 208 q 344 144 331 79 q 315 10 295 -30 q 287 -39 279 -48 q 278 -55 278 -58 q 279 -68 279 -74 q 277 -96 240 -123 q 208 -146 199 -147 q 189 -148 185 -155 q 179 -165 178 -166 q 165 -178 142 -189 q 115 -201 88 -212 q 75 -220 53 -186 q 31 -152 31 -128 q 31 -114 42 -113 q 112 -107 126 -104 q 175 -93 201 -60 z"},".":{"x_min":0,"x_max":162,"ha":162,"o":"m 145 91 q 149 67 130 36 q 108 1 81 1 q 75 1 73 2 q 47 7 33 29 q 27 34 27 48 q 27 61 30 72 q 33 82 35 88 q 35 92 45 94 q 55 96 56 100 q 65 118 66 119 q 72 129 82 133 q 92 136 98 136 q 115 136 129 123 q 143 109 145 91 z"},"p":{"x_min":0,"x_max":425,"ha":425,"o":"m 397 307 q 395 302 395 287 q 394 272 394 262 q 394 252 394 246 q 394 205 391 185 q 385 150 369 125 q 357 105 342 91 q 339 88 309 62 q 277 33 245 4 q 210 -23 166 -23 q 146 -23 142 -33 q 138 -44 136 -46 l 102 -192 q 91 -194 83 -194 q 72 -194 64 -188 q 57 -183 52 -175 q 47 -166 46 -158 q 45 -151 45 -145 q 45 -133 49 -108 q 53 -84 54 -73 q 55 -63 61 -38 q 67 -13 69 0 q 70 8 62 12 q 55 16 43 16 q 35 16 28 14 q 26 15 25 17 q 27 27 32 32 q 35 35 56 40 q 77 45 81 58 q 92 92 110 192 q 116 225 127 284 q 114 284 103 287 q 73 295 72 295 q 67 295 66 300 q 65 306 65 317 q 65 326 105 339 q 135 349 148 355 q 152 386 155 402 q 162 448 168 455 q 173 461 180 461 q 188 459 194 459 q 207 459 225 443 q 230 438 240 426 q 244 422 241 413 q 238 405 240 401 q 242 396 252 394 q 261 392 272 392 q 282 392 290 392 q 298 393 305 395 q 313 384 355 345 q 368 332 397 307 z m 293 256 q 288 286 275 297 q 262 308 246 308 q 238 308 231 306 q 223 303 222 303 q 204 241 195 207 q 168 102 168 70 q 168 58 171 55 q 178 48 188 48 q 200 48 213 55 q 225 61 240 72 q 305 120 305 205 q 305 218 300 233 q 295 249 293 256 z"},"X":{"x_min":0,"x_max":534,"ha":534,"o":"m 500 586 l 498 545 q 495 535 483 518 q 472 502 472 492 q 472 487 472 485 q 472 485 437 437 q 402 390 372 348 q 335 295 332 286 q 328 275 368 204 q 414 124 461 44 q 465 35 454 30 q 442 25 428 25 q 417 25 412 28 q 408 29 410 20 q 411 11 411 4 q 411 -1 410 -2 l 359 -2 l 272 187 l 269 185 q 252 167 207 101 q 174 52 148 45 q 145 44 144 38 q 143 34 142 30 q 133 14 115 2 q 96 -9 77 -9 q 63 -9 53 -1 q 42 7 38 25 q 36 38 45 38 q 55 39 55 44 q 55 52 43 74 q 67 90 78 99 q 114 127 110 139 q 137 163 152 176 q 198 218 212 238 q 215 243 220 254 q 222 258 230 282 q 220 309 210 338 q 186 399 161 442 q 128 499 102 499 q 92 499 82 489 q 76 483 72 483 q 62 483 55 496 q 48 509 48 522 q 48 530 57 542 q 60 545 66 552 q 64 558 64 564 q 64 583 83 603 q 89 609 103 620 q 108 621 116 621 q 141 621 160 605 q 165 602 182 585 q 187 580 192 580 q 203 580 205 579 q 220 569 250 488 q 279 408 288 406 q 296 404 305 402 q 308 402 308 406 q 314 423 320 440 q 336 479 361 515 q 395 563 438 591 q 466 609 463 619 q 465 618 468 618 q 474 616 479 605 q 480 604 482 600 z"},"*":{"x_min":0,"x_max":318,"ha":318,"o":"m 295 597 q 300 580 258 565 q 244 560 213 552 l 261 483 q 258 479 257 477 q 244 458 241 452 q 223 478 215 489 q 188 525 182 522 q 175 515 172 507 q 169 498 169 482 q 169 474 171 452 q 172 430 172 427 q 172 418 172 414 l 142 451 l 142 537 q 136 541 125 541 q 102 541 63 522 q 50 516 28 503 q 32 514 35 520 q 44 540 52 548 q 75 554 86 558 q 122 570 127 578 q 130 585 96 618 q 85 628 62 650 q 67 655 78 655 q 95 655 122 636 q 130 630 144 618 q 148 612 157 612 q 165 612 165 617 l 192 698 q 200 693 208 681 q 212 677 216 668 q 215 662 202 621 q 195 601 195 595 z"},"Y":{"x_min":0,"x_max":669,"ha":669,"o":"m 385 528 q 371 535 366 539 q 362 544 352 561 q 347 572 347 582 q 347 595 354 606 q 362 616 375 616 q 381 616 389 614 q 426 602 449 597 q 472 592 487 592 q 508 592 518 607 q 528 622 545 622 q 550 621 553 621 q 563 621 573 621 q 588 621 599 613 q 610 605 626 582 q 645 555 643 540 q 628 452 571 297 q 501 108 425 -11 q 328 -162 244 -162 q 238 -162 235 -162 q 179 -156 173 -154 q 172 -152 172 -150 q 156 -150 141 -152 q 125 -155 122 -155 q 112 -155 101 -148 q 82 -137 73 -116 q 64 -95 64 -76 q 64 -55 72 -36 q 80 -16 92 -12 q 118 -33 135 -43 q 186 -75 222 -75 q 252 -75 269 -51 q 282 -33 286 -19 q 291 -5 291 8 q 291 29 278 55 q 244 125 242 136 q 234 171 211 241 q 196 285 180 345 q 163 405 148 441 q 138 463 124 482 q 124 494 115 498 q 107 502 92 502 q 86 502 73 502 q 61 501 55 501 q 49 501 43 507 q 36 514 36 519 q 36 522 38 524 q 52 534 60 542 q 75 558 85 575 q 99 602 116 613 q 133 625 151 625 q 172 625 192 612 q 205 603 214 591 q 228 571 237 563 q 239 561 241 553 q 243 546 243 543 q 242 532 242 527 q 242 523 244 516 q 246 509 262 496 q 271 489 274 482 q 275 480 275 478 q 275 475 275 474 q 275 468 270 458 q 265 448 265 443 q 265 436 267 431 q 269 425 276 415 q 289 397 291 392 q 292 388 292 376 l 290 360 q 290 344 306 324 q 322 305 324 295 q 325 286 325 277 q 325 270 324 256 q 322 242 322 233 q 322 187 340 137 q 355 95 375 67 q 388 83 401 99 q 416 139 454 270 q 474 342 477 354 q 486 394 491 436 q 492 451 493 465 q 493 489 484 502 q 472 519 442 526 q 430 529 424 530 q 418 531 411 531 q 404 531 399 528 q 395 526 393 526 q 391 526 385 528 z"},"c":{"x_min":0,"x_max":298,"ha":298,"o":"m 134 164 q 133 158 133 152 q 133 146 133 143 q 133 104 150 85 q 165 70 190 70 q 209 70 226 77 q 243 84 254 95 q 259 85 259 68 q 259 55 258 50 q 258 45 256 42 q 238 38 228 36 q 197 27 187 12 l 180 -2 q 169 -16 151 -16 q 144 -16 137 -15 q 131 -13 116 -9 q 101 -5 70 30 q 39 65 42 78 q 43 89 43 95 q 43 107 39 136 q 35 165 35 184 q 35 201 37 210 q 42 245 75 282 q 91 301 122 328 q 129 334 131 346 q 133 358 141 363 q 149 368 193 386 q 237 403 256 411 q 268 415 296 398 q 325 382 318 374 q 317 372 312 368 q 310 367 307 365 q 307 343 299 335 q 291 327 277 327 q 270 327 263 328 q 247 334 239 335 q 232 337 223 337 q 188 337 168 303 q 142 262 134 164 z"},"!":{"x_min":0,"x_max":209,"ha":209,"o":"m 37 72 q 40 78 50 82 q 61 85 75 85 q 92 85 106 79 q 119 74 125 63 q 127 58 126 50 q 125 43 123 38 l 128 37 q 128 31 128 24 q 128 18 126 11 q 111 3 102 -1 q 74 -13 58 -13 q 44 -13 38 -3 q 38 -2 37 12 q 37 26 37 37 q 37 60 37 66 q 37 68 37 72 z m 152 314 q 149 295 149 277 q 149 255 158 232 q 168 210 168 201 q 168 194 148 183 q 137 177 135 167 q 132 156 120 138 q 108 120 100 120 q 96 120 94 125 q 86 125 82 126 q 68 129 60 134 q 49 141 45 152 q 42 163 40 173 q 38 184 38 190 q 38 192 42 205 q 46 218 46 246 l 117 589 q 118 594 131 597 q 144 601 149 605 q 158 618 162 623 q 165 628 169 625 l 183 609 q 185 606 185 597 q 185 571 177 502 q 169 433 152 314 z"},"/":{"x_min":0,"x_max":389,"ha":389,"o":"m 314 563 q 293 501 272 445 q 243 371 215 298 q 202 254 174 199 q 150 152 145 141 l 65 -81 l 25 -106 q 29 -85 32 -74 q 40 -38 51 -18 q 53 -15 60 -6 q 68 2 69 9 l 90 76 l 148 228 q 160 244 183 307 q 192 332 228 432 q 256 513 275 556 q 279 563 284 570 q 284 595 298 625 q 308 647 312 658 l 337 738 l 369 720 q 368 716 357 662 q 350 628 336 623 q 322 618 319 599 q 315 565 314 563 z"},"6":{"x_min":0,"x_max":519,"ha":519,"o":"m 177 296 q 185 288 197 288 q 212 288 216 300 q 228 330 229 332 q 233 338 255 346 q 294 361 331 361 q 398 361 442 319 q 490 272 490 185 q 490 100 426 44 q 362 -12 266 -12 q 145 -12 89 55 q 43 112 43 215 q 43 325 112 428 q 172 515 261 577 q 342 632 395 632 q 414 632 438 618 q 462 604 462 595 q 462 590 454 590 q 398 590 327 532 q 265 482 219 414 q 172 345 172 311 q 172 301 177 296 z m 377 194 q 352 245 337 261 q 313 287 276 287 q 255 287 228 280 q 202 272 165 256 q 153 251 153 215 q 153 182 162 151 q 171 120 183 118 q 187 106 189 99 q 197 77 203 65 q 210 53 230 45 q 250 38 275 38 q 312 38 338 55 q 369 75 377 115 q 379 128 379 148 q 379 175 379 182 q 378 188 377 194 z"},"r":{"x_min":0,"x_max":337,"ha":337,"o":"m 65 247 q 66 257 71 276 q 76 295 76 309 q 76 320 69 338 q 62 357 62 362 q 62 366 65 369 q 76 379 83 385 q 105 402 113 404 q 120 405 147 387 q 155 381 173 367 q 172 364 170 362 q 153 355 155 351 q 155 341 156 330 q 157 320 164 314 q 167 311 171 311 q 177 311 190 342 q 198 361 205 367 q 226 385 240 393 q 260 405 272 405 q 276 405 279 404 q 289 398 300 378 q 302 375 305 369 q 294 361 294 353 q 294 349 298 343 q 302 337 300 332 q 290 307 282 298 q 270 282 249 282 q 237 282 226 286 q 205 293 168 230 q 132 168 132 115 q 132 80 143 56 q 147 48 155 39 q 140 30 131 16 q 122 2 118 2 q 109 4 104 4 q 91 4 80 1 q 68 -2 55 -12 q 49 -15 46 -15 q 39 -15 35 -6 q 31 3 31 18 q 31 31 35 46 q 42 69 50 140 q 58 212 65 247 z"},"2":{"x_min":0,"x_max":476,"ha":476,"o":"m 256 141 q 226 102 226 95 q 226 92 232 93 q 238 95 247 96 q 249 96 254 94 q 259 92 265 92 q 272 92 277 92 q 287 95 298 99 q 302 99 313 95 q 318 92 323 92 q 366 92 373 92 q 379 92 382 92 q 382 89 397 83 q 412 77 412 65 q 412 62 410 55 q 408 48 404 42 q 412 39 415 38 q 427 32 431 25 q 435 23 437 23 q 439 22 439 17 q 439 12 438 7 q 437 1 418 -3 q 398 -6 364 -6 q 328 -6 278 -3 q 228 1 178 5 q 163 5 127 -2 q 91 -8 78 -8 q 65 -8 60 -2 q 39 23 39 53 q 39 78 45 84 q 55 95 97 95 q 138 95 219 193 q 306 300 318 390 q 319 398 320 403 q 320 409 320 413 q 320 470 285 512 q 250 555 212 555 q 192 555 177 542 q 162 530 155 505 q 148 480 143 471 q 138 462 135 462 q 132 462 127 466 q 119 475 118 475 q 112 479 109 486 q 105 493 108 498 q 112 507 120 558 q 128 609 129 614 q 130 616 130 619 q 130 623 134 623 q 136 623 180 614 q 184 613 191 613 q 230 619 270 625 q 345 618 392 582 q 445 540 445 468 q 445 454 443 436 q 427 333 368 262 q 312 202 256 141 z"},"9":{"x_min":0,"x_max":513,"ha":513,"o":"m 275 277 q 255 264 236 258 q 217 252 192 252 q 155 252 127 264 q 98 276 75 305 q 55 328 47 352 q 40 376 40 411 q 40 493 102 557 q 163 621 248 621 q 348 621 415 559 q 485 494 485 390 q 485 284 421 189 q 364 106 264 42 q 258 38 248 38 q 242 38 237 39 q 232 40 227 42 q 223 39 220 37 q 215 11 208 9 q 202 7 195 7 q 185 8 179 8 q 175 8 172 7 q 165 5 152 -5 q 140 -16 130 -16 q 112 -16 92 -1 q 85 8 79 18 q 191 58 278 158 q 375 268 375 383 q 375 395 375 404 q 375 412 375 418 q 375 446 369 467 q 364 487 347 505 q 320 535 299 551 q 269 573 244 573 q 222 573 201 557 q 179 540 160 503 q 152 487 152 473 q 152 465 156 445 q 160 424 160 406 q 160 403 167 402 q 174 402 174 399 q 174 371 192 353 q 203 342 234 328 q 245 322 261 322 q 277 322 290 327 q 302 332 308 339 q 312 336 316 334 q 318 331 322 323 q 312 312 306 305 q 287 284 275 277 z"}," ":{"x_min":0,"x_max":300,"ha":300,"o":""},"I":{"x_min":0,"x_max":411,"ha":411,"o":"m 228 69 q 239 79 252 89 q 258 99 267 127 q 282 171 298 215 q 323 287 336 355 q 355 449 355 547 q 355 591 343 608 q 332 626 312 626 q 302 626 290 621 q 278 616 268 609 q 266 610 230 582 q 209 565 196 561 q 203 548 211 536 q 238 506 245 492 q 252 480 258 468 q 264 455 263 450 q 246 392 234 338 q 219 278 219 248 q 219 246 210 231 q 201 215 198 205 q 196 201 195 194 q 195 188 195 181 q 195 165 193 158 q 192 152 185 145 q 168 133 122 76 q 106 56 83 46 l 28 21 q 29 21 32 21 q 58 12 58 2 q 61 1 58 -8 q 56 -16 58 -18 q 62 -28 75 -28 q 82 -28 88 -25 l 140 9 q 145 12 151 12 q 162 12 175 12 q 195 17 211 42 q 219 55 228 69 z"},"H":{"x_min":0,"x_max":665,"ha":665,"o":"m 553 605 q 560 605 570 602 q 580 598 582 598 q 586 598 590 600 q 605 612 617 612 q 633 612 633 584 q 633 565 626 543 q 619 520 611 508 q 600 498 590 489 q 588 485 588 479 q 588 475 591 465 q 594 456 594 452 q 594 447 590 441 l 583 434 q 577 427 575 419 q 572 411 572 402 q 572 395 572 388 q 572 381 573 374 q 573 365 572 359 q 572 354 567 346 q 565 343 557 335 q 549 327 548 316 q 547 305 541 272 q 535 238 535 217 q 535 211 536 203 q 537 196 537 192 q 541 150 552 112 q 562 73 574 65 q 583 58 583 43 q 583 24 568 8 q 551 -12 523 -12 q 498 -12 486 -31 q 481 -38 472 -37 q 461 -35 453 -25 q 450 -22 435 14 q 424 40 424 81 q 424 128 450 237 q 452 257 454 277 q 447 278 437 288 q 427 298 419 298 q 408 298 393 287 q 379 277 373 275 q 358 268 340 266 q 323 264 308 264 q 298 264 275 265 q 252 265 251 265 q 241 265 221 272 q 209 276 205 276 q 197 276 190 272 q 184 268 181 259 q 178 251 178 240 q 178 233 178 229 q 178 223 177 215 q 176 207 175 189 q 175 171 175 165 q 175 150 175 141 q 175 112 160 102 q 146 92 145 84 q 143 77 143 67 q 143 61 143 55 q 143 49 144 43 q 144 33 142 26 q 141 18 139 8 q 138 -2 131 -5 q 124 -8 114 1 q 102 12 96 12 q 90 12 79 6 q 68 0 62 2 q 50 6 47 21 q 44 36 43 42 q 42 45 42 52 q 42 66 59 91 q 75 116 75 134 q 75 173 92 259 q 108 345 125 437 q 142 528 142 577 q 142 596 140 612 q 139 622 152 631 q 160 637 172 637 q 180 637 190 633 q 201 628 212 618 q 218 613 233 609 q 260 602 265 591 q 265 588 265 582 q 265 558 242 459 q 218 361 218 346 q 218 345 218 343 q 218 340 221 342 q 228 346 252 346 q 273 346 285 345 q 347 342 350 342 q 365 342 399 334 q 416 330 425 330 q 435 330 442 332 q 448 333 458 339 q 468 345 483 413 q 508 521 512 536 q 532 602 553 605 z"},"4":{"x_min":0,"x_max":553,"ha":553,"o":"m 424 212 q 402 208 393 197 q 378 178 378 143 q 378 85 385 50 q 392 15 404 15 q 405 15 405 16 q 405 20 397 20 q 391 20 387 18 q 385 18 382 18 q 379 18 378 18 q 369 18 363 16 q 358 14 355 5 q 348 -13 341 -14 q 333 -15 324 -7 q 315 2 310 2 q 298 2 273 -13 q 262 -20 255 -18 q 266 41 271 72 q 287 172 287 197 q 287 207 285 208 q 278 212 272 213 q 265 215 259 215 q 251 215 232 210 q 212 205 200 205 q 173 205 124 203 q 75 200 69 200 q 49 200 45 203 q 34 212 34 225 q 34 238 43 253 q 45 256 80 300 q 84 305 215 438 q 266 489 302 540 q 319 566 353 587 q 405 618 468 618 q 473 618 473 608 q 473 590 440 480 q 406 371 406 333 q 406 321 408 316 q 413 298 415 295 q 422 288 449 284 q 457 283 465 283 q 474 282 483 282 q 497 282 507 283 q 517 283 525 284 q 522 274 520 269 q 512 253 501 250 q 490 248 490 235 q 490 225 502 210 z m 265 286 q 272 286 297 300 q 302 302 307 304 q 305 299 304 298 q 311 325 314 339 q 325 387 325 402 q 325 409 322 411 q 325 426 325 435 q 325 454 315 454 q 308 454 295 442 q 282 430 278 427 q 251 403 224 379 q 182 341 186 332 q 175 322 175 310 q 175 299 187 292 q 198 284 212 284 z"},"D":{"x_min":0,"x_max":997,"ha":997,"o":"m 111 32 q 112 37 112 45 q 112 65 93 85 q 74 105 55 125 q 45 138 45 156 q 45 166 49 179 q 52 192 58 208 q 59 214 66 224 q 73 234 74 240 q 74 255 74 270 q 75 277 85 286 q 95 295 97 302 l 99 323 q 102 335 106 343 q 110 351 118 362 q 122 367 124 368 q 128 372 129 376 l 132 390 q 134 397 144 404 q 155 412 157 418 q 160 424 160 432 q 160 435 159 443 q 158 450 158 454 q 158 459 160 467 q 162 475 188 490 q 224 511 233 519 q 317 598 411 638 q 516 683 644 683 q 782 683 862 626 q 919 585 942 517 q 953 482 953 448 q 953 424 952 406 q 950 388 949 374 q 949 355 951 349 q 953 343 953 342 l 948 323 q 923 307 912 298 q 902 289 898 279 q 895 268 895 255 q 895 244 895 238 q 896 232 898 228 q 866 173 835 118 q 794 68 729 33 q 665 -2 618 -2 q 598 -2 586 5 q 581 7 575 -5 q 570 -16 565 -18 q 559 -21 555 -21 q 554 -21 540 -18 q 525 -15 522 -16 q 513 -19 505 -23 q 498 -25 495 -25 q 492 -25 482 -23 q 472 -21 471 -21 q 462 -22 458 -22 q 448 -22 443 -16 q 442 -15 442 -9 q 440 -5 438 -2 q 431 -10 422 -10 q 415 -10 404 -4 q 387 5 383 7 q 363 15 353 34 q 325 88 305 104 q 298 110 313 122 q 318 126 330 134 q 347 118 357 111 q 389 87 409 87 q 417 87 422 90 q 432 95 455 197 q 467 254 495 393 q 517 507 524 528 q 527 537 528 543 q 530 549 530 556 q 530 567 524 573 q 518 579 503 579 q 423 579 356 535 q 289 492 256 425 q 254 422 248 419 q 243 416 242 415 q 198 385 167 303 q 135 220 135 134 q 135 81 148 39 q 140 33 135 31 q 121 22 115 22 q 108 22 111 32 z m 718 579 q 695 588 672 598 q 664 598 660 589 q 655 581 655 558 q 655 542 652 537 q 649 532 644 532 q 637 532 637 528 q 637 448 615 379 q 602 340 562 257 q 522 173 503 118 q 498 103 498 95 q 498 82 511 76 q 525 69 558 69 q 660 69 741 162 q 822 255 822 381 q 822 438 788 505 q 755 572 718 579 z"},"0":{"x_min":0,"x_max":569,"ha":569,"o":"m 249 584 q 271 605 294 615 q 318 624 344 624 q 415 624 473 558 q 532 493 532 410 q 532 403 532 400 q 532 394 531 383 q 515 258 495 201 q 480 168 465 135 q 465 128 466 125 q 468 110 457 103 q 422 80 413 60 q 410 54 382 53 q 353 52 344 42 q 337 28 330 16 q 287 -12 237 -12 q 172 -12 125 35 q 72 88 60 187 q 59 193 55 197 q 40 210 39 212 q 38 215 38 218 q 38 222 38 223 q 38 233 42 244 q 50 262 51 265 q 59 319 64 343 q 72 384 92 415 q 103 432 119 448 q 147 474 150 478 q 180 512 192 525 q 213 549 249 584 z m 323 558 q 320 559 313 559 q 254 559 210 453 q 169 354 169 239 q 169 156 192 108 q 217 53 268 53 q 331 53 372 154 q 410 245 410 362 q 410 443 389 495 q 366 552 323 558 z"},"F":{"x_min":0,"x_max":574,"ha":574,"o":"m 316 524 q 309 525 301 525 q 292 525 288 525 q 208 525 148 475 q 89 425 89 345 q 89 308 104 268 q 107 261 107 255 q 107 245 96 245 q 86 245 72 255 q 57 264 55 272 q 48 302 45 324 q 42 347 42 369 q 42 424 65 462 q 85 489 106 517 q 100 528 97 534 q 88 553 88 565 q 88 579 156 596 q 224 613 224 614 q 232 614 238 614 q 245 614 248 614 q 277 614 296 615 q 315 616 321 619 q 327 622 327 632 q 327 638 325 645 q 325 647 323 651 q 337 655 346 655 q 368 655 384 637 q 401 620 418 602 q 432 602 441 603 q 483 607 485 607 q 504 607 515 603 q 525 600 530 589 q 535 578 535 568 q 535 548 532 530 q 528 513 522 512 q 504 522 494 526 q 462 541 448 541 q 436 541 433 531 q 431 522 428 508 q 422 474 419 461 q 416 448 394 369 q 385 339 385 329 q 385 321 390 318 q 405 312 428 311 q 452 310 465 307 q 478 304 492 300 q 506 297 510 291 q 516 282 505 265 q 493 247 478 242 q 471 240 460 244 q 449 248 445 248 q 443 248 438 247 q 436 246 432 239 q 427 232 422 233 q 403 233 388 234 q 372 235 358 235 q 344 187 335 160 q 306 80 279 53 q 268 48 263 46 q 252 40 245 22 q 231 -14 215 -14 q 211 -14 205 -12 q 198 -9 194 -9 q 187 -9 178 -16 q 168 -22 164 -23 q 161 -24 155 -24 q 130 -24 109 -8 q 88 8 88 29 q 88 33 90 39 q 95 57 100 63 q 105 69 112 69 q 114 69 138 62 q 149 58 159 58 q 168 62 174 63 q 208 75 219 85 q 236 100 253 147 q 269 194 269 225 q 269 230 268 238 q 258 236 245 235 q 232 233 218 233 q 207 233 198 236 q 190 238 189 256 q 188 274 182 279 q 172 288 166 295 q 161 302 161 305 q 161 311 168 316 q 178 315 190 313 q 203 312 220 312 q 238 312 249 313 q 261 315 272 321 q 298 334 310 388 q 318 425 318 479 q 318 495 317 506 q 317 516 316 524 z"},"k":{"x_min":0,"x_max":468,"ha":468,"o":"m 222 516 q 212 454 207 427 q 198 378 198 347 q 198 335 202 330 q 205 325 208 325 q 214 325 236 348 q 305 422 389 482 q 405 494 421 494 q 437 494 447 483 q 456 473 452 462 q 446 457 440 452 q 436 448 436 443 q 436 439 439 430 q 442 421 442 416 q 442 411 438 408 q 434 405 430 403 q 429 401 432 396 q 435 391 432 389 q 413 378 397 368 q 367 349 347 332 q 342 327 323 319 q 313 315 307 310 q 291 297 284 288 q 273 275 273 264 q 273 235 308 172 q 346 102 375 109 q 391 113 396 114 q 414 118 418 118 q 426 118 427 110 q 428 106 428 102 q 428 96 428 92 q 428 72 418 59 q 405 52 393 45 q 389 39 387 29 q 384 18 382 15 q 366 -17 340 -17 q 316 -17 289 11 q 267 34 252 66 q 213 155 202 172 q 186 184 172 195 q 166 172 163 156 q 144 74 125 13 q 120 -6 111 -15 q 102 -24 90 -24 q 74 -24 58 -9 q 42 6 37 23 q 34 34 60 152 q 95 311 112 412 q 141 585 141 695 q 141 703 129 725 q 123 736 123 744 q 123 752 126 759 q 129 767 133 775 q 137 783 145 788 q 162 802 172 822 q 184 852 208 852 q 228 852 248 832 q 268 812 268 795 q 268 692 252 632 q 225 532 222 516 z"},"u":{"x_min":0,"x_max":426,"ha":426,"o":"m 208 46 q 188 35 156 15 q 125 -5 121 -10 q 117 -15 108 -15 q 85 -15 57 8 q 30 30 34 52 q 43 92 49 122 q 72 226 72 291 q 72 298 72 302 q 72 308 72 311 q 72 332 70 343 q 68 354 60 369 q 73 382 81 388 q 105 407 117 409 q 122 410 128 408 q 133 407 135 407 q 141 407 145 408 q 155 409 161 398 q 166 387 165 377 q 164 366 165 355 q 170 319 170 318 q 170 311 168 306 q 160 291 148 239 q 132 175 132 133 q 132 108 137 94 q 142 80 155 77 q 158 76 165 76 q 211 76 252 162 q 291 241 291 311 q 291 332 284 345 q 278 358 272 371 q 282 385 311 399 q 339 412 349 411 q 360 408 378 388 q 383 381 394 366 q 382 365 358 232 q 344 148 335 112 q 334 103 334 100 q 334 86 340 76 q 346 65 360 57 q 366 53 366 46 q 366 41 362 38 q 349 33 345 25 q 341 17 336 13 q 332 10 315 5 q 298 1 288 -14 q 285 -16 280 -16 q 275 -16 264 -14 q 253 -12 252 -12 q 246 -12 246 21 q 246 54 243 55 q 233 59 228 59 q 223 59 217 53 q 210 48 208 46 z"},"U":{"x_min":0,"x_max":593,"ha":593,"o":"m 75 565 l 58 577 q 88 605 116 620 q 152 640 180 640 q 197 640 210 633 q 223 627 234 612 l 243 616 l 257 600 l 227 549 l 229 538 q 230 533 230 525 q 230 505 220 483 q 188 415 188 413 q 183 395 167 337 q 142 249 142 214 q 142 194 148 183 q 154 172 167 168 q 177 166 226 205 q 275 245 328 299 q 390 365 423 420 q 433 438 443 480 q 452 522 462 568 q 465 572 475 576 q 486 580 488 586 q 488 593 488 600 q 490 605 499 605 q 505 605 508 605 q 524 605 535 594 q 544 586 555 568 q 562 556 562 539 q 562 493 527 444 q 518 438 511 434 q 510 434 495 384 q 477 323 466 275 q 450 206 450 173 q 450 145 458 142 q 466 138 475 138 q 485 138 501 144 q 516 150 518 148 q 524 142 524 132 q 524 125 520 115 l 518 108 l 518 90 q 508 75 465 51 q 432 32 432 5 q 432 -7 416 -7 q 402 -7 395 0 q 389 0 376 -4 q 363 -8 358 -8 q 349 -8 345 -3 q 342 2 342 15 q 342 29 347 51 q 348 62 348 63 q 345 78 342 92 q 357 128 366 156 q 375 185 375 211 q 375 221 375 226 q 375 235 375 242 q 375 248 373 254 q 368 252 363 251 q 347 208 340 205 q 326 202 312 198 q 307 195 304 182 q 301 169 296 164 q 292 158 276 155 q 260 152 259 145 q 256 115 239 102 q 198 73 185 58 q 163 36 151 28 q 124 9 112 -5 q 98 1 92 5 q 69 17 61 28 q 49 42 46 57 q 42 72 42 95 q 42 102 42 106 q 42 191 68 306 q 95 422 121 533 q 122 536 122 541 q 122 550 113 550 q 95 546 77 542 z"},"o":{"x_min":0,"x_max":362,"ha":362,"o":"m 201 391 l 293 394 q 305 369 311 353 q 328 303 328 257 q 328 174 281 103 q 223 43 165 -17 q 163 -15 162 -15 q 154 -12 144 -12 q 131 -12 119 -18 q 114 -22 90 -5 q 65 11 47 29 q 42 35 37 67 q 33 98 33 132 q 33 173 46 205 q 57 230 87 272 q 112 309 137 346 q 172 391 201 391 z m 210 335 q 189 315 178 302 q 145 264 141 238 q 140 235 142 232 q 143 228 143 226 q 139 204 132 172 q 122 132 122 131 q 121 125 124 114 q 127 103 126 98 q 125 95 125 88 q 125 72 132 62 q 138 52 150 52 q 168 52 187 79 q 211 112 233 180 q 238 196 238 212 q 238 222 237 234 q 235 246 233 258 q 226 312 223 322 q 216 328 210 335 z"},"N":{"x_min":0,"x_max":577,"ha":577,"o":"m 389 381 q 340 372 272 281 q 221 213 163 107 q 118 24 105 -12 q 103 -18 98 -18 q 88 -18 67 0 q 41 22 38 23 q 36 25 36 31 q 62 134 82 231 q 102 328 102 403 q 102 417 102 432 q 99 450 98 460 q 97 470 82 475 q 66 480 63 489 q 61 498 61 502 q 61 506 64 517 l 89 526 l 89 572 l 115 582 q 118 595 135 605 q 152 615 171 615 q 190 615 203 602 q 216 589 216 561 q 216 517 215 500 q 214 484 212 484 q 209 485 207 488 q 205 488 204 477 q 203 467 201 423 q 199 379 195 365 q 182 341 174 320 q 165 300 165 287 q 165 271 179 268 q 188 265 236 330 q 291 406 345 482 q 348 484 354 481 q 360 478 362 480 q 368 493 376 507 q 388 528 406 547 q 423 567 441 580 q 458 593 484 605 l 514 618 q 527 611 541 603 q 546 595 546 575 q 546 552 544 542 q 541 533 538 525 q 538 525 542 515 q 535 513 532 512 q 512 505 509 494 q 508 487 513 478 q 518 469 518 464 q 518 454 503 445 q 488 436 487 430 q 485 425 485 419 q 485 411 492 393 q 498 376 495 369 q 467 307 447 223 q 427 138 427 85 q 427 40 442 37 q 450 35 461 39 q 472 42 477 42 q 483 41 485 25 q 488 9 514 9 q 522 9 522 3 q 522 -7 509 -25 q 508 -28 502 -35 q 483 -40 448 -55 q 419 -67 403 -67 q 386 -67 350 -42 q 311 -15 311 2 q 311 16 326 75 q 341 133 359 171 q 364 181 365 200 q 365 220 367 233 q 369 246 382 301 q 395 356 395 370 q 395 382 389 381 z"},"G":{"x_min":0,"x_max":586,"ha":586,"o":"m 470 625 q 483 628 518 614 q 538 605 537 595 q 535 584 542 572 q 552 561 561 549 q 561 547 550 543 q 539 540 526 524 q 513 508 505 508 q 504 508 498 510 q 487 514 473 514 q 465 514 448 511 q 432 508 423 508 q 415 508 405 510 q 395 512 375 529 q 358 543 343 540 q 265 523 213 419 q 165 325 165 220 q 165 155 188 113 q 210 72 255 72 q 342 72 397 132 q 435 174 459 245 q 479 305 482 305 q 492 303 495 302 q 516 297 524 297 q 535 297 544 300 q 535 256 528 212 q 513 158 478 42 q 450 -51 449 -51 q 434 -62 400 -77 q 389 -82 371 -90 q 368 -89 354 -84 q 340 -79 343 -72 q 353 -48 362 -25 q 379 20 379 34 q 379 39 376 39 q 375 39 371 37 q 353 23 340 18 q 327 12 317 12 q 304 13 297 13 q 287 13 276 9 q 232 -8 192 -8 q 112 -8 75 75 q 48 135 48 219 q 48 275 58 304 q 71 338 85 372 q 88 382 105 395 q 115 403 118 410 q 122 416 127 433 q 132 449 140 457 q 144 460 149 463 q 165 472 168 473 q 174 478 181 490 q 188 502 193 508 q 226 547 290 575 q 338 597 399 611 q 435 618 470 625 z"},"q":{"x_min":0,"x_max":438,"ha":438,"o":"m 318 43 q 318 12 313 -8 q 305 -39 300 -74 q 298 -88 298 -92 q 298 -106 303 -112 q 307 -118 314 -118 q 316 -118 330 -113 q 330 -114 330 -115 q 306 -148 288 -163 q 260 -188 229 -188 q 222 -188 213 -187 q 205 -185 198 -175 q 191 -164 191 -148 q 191 -118 228 -18 q 231 0 235 18 q 208 18 152 7 q 95 -5 83 -5 q 55 -5 43 34 q 35 61 35 102 q 35 144 55 182 q 73 215 109 254 q 116 261 180 323 q 243 370 307 418 q 310 422 310 428 q 310 440 304 453 q 303 455 300 459 q 302 463 306 463 q 309 463 318 459 q 326 455 330 455 q 335 455 342 459 q 350 464 355 464 q 376 465 394 452 q 397 450 413 434 q 401 394 389 355 q 362 265 344 188 q 318 83 318 43 z m 286 325 q 258 333 195 258 q 133 182 133 133 q 134 128 134 126 q 138 95 147 78 q 159 55 182 55 q 200 55 218 66 q 236 77 249 97 q 255 106 257 123 q 259 139 267 158 q 275 178 277 186 q 278 195 280 202 q 288 221 292 243 q 296 265 296 288 q 296 322 286 325 z"},"d":{"x_min":0,"x_max":375,"ha":375,"o":"m 294 134 q 292 115 265 79 q 234 40 167 -5 q 153 -13 137 -13 q 128 -13 120 -11 q 111 -9 98 -5 q 64 8 49 45 q 38 75 38 120 q 38 214 88 286 q 155 351 222 415 q 225 419 225 424 q 225 442 176 475 q 122 511 68 547 q 67 552 76 558 q 85 565 86 570 q 88 576 88 578 q 86 589 86 594 q 86 600 88 602 q 93 608 102 608 q 115 606 130 605 q 145 609 152 613 q 166 621 171 621 q 176 621 176 614 q 176 593 190 581 q 204 569 218 558 q 272 518 328 478 q 363 428 363 330 q 363 250 341 194 q 319 138 294 134 z m 262 355 q 250 367 191 311 q 127 251 127 198 q 127 191 128 187 q 132 152 140 134 q 152 108 174 99 q 192 92 234 141 q 282 195 282 252 q 282 256 282 261 q 280 267 280 270 q 278 276 278 283 q 278 291 278 295 q 278 300 278 303 q 278 326 275 336 q 271 346 262 355 z"},"1":{"x_min":0,"x_max":265,"ha":265,"o":"m 172 138 q 172 133 163 126 q 154 119 154 113 q 154 102 157 72 q 160 42 160 32 q 160 13 154 14 q 148 15 142 15 q 135 15 128 15 q 107 15 87 10 q 66 5 45 -12 q 42 -15 39 -15 q 36 -15 36 -7 q 36 0 40 17 q 44 33 46 44 q 48 55 62 141 q 75 227 87 308 q 99 388 110 450 q 111 454 111 461 q 111 488 93 508 q 75 529 47 529 q 41 529 27 526 q 42 537 58 548 q 115 579 172 612 q 182 619 196 619 q 212 619 221 608 q 233 592 233 559 q 233 545 232 536 q 232 527 228 505 q 209 406 204 360 q 203 348 202 337 q 200 332 192 322 q 185 313 182 307 q 178 300 176 290 q 174 279 174 273 q 174 263 176 249 q 182 217 182 206 q 182 199 182 196 q 182 192 175 165 q 172 152 172 138 z"},"5":{"x_min":0,"x_max":452,"ha":452,"o":"m 224 395 q 283 382 328 348 q 383 306 383 249 q 383 198 357 155 q 331 112 291 95 q 278 88 267 75 q 255 62 245 48 q 215 19 188 6 q 160 -7 132 -7 q 114 -7 92 -2 q 85 -1 46 9 l 44 46 l 39 51 l 37 92 l 46 92 l 48 108 q 72 97 99 90 q 125 84 151 84 q 202 84 232 109 q 268 139 268 198 q 268 246 253 264 q 252 265 222 284 q 157 314 142 322 q 120 332 120 367 q 120 474 146 528 q 169 575 205 572 q 214 572 228 590 q 242 608 249 611 q 257 614 265 615 q 273 615 274 615 q 280 615 296 613 q 312 612 318 612 l 418 612 q 422 609 422 605 q 418 594 418 588 l 404 579 l 411 552 l 399 526 l 383 531 l 275 531 q 244 531 232 509 q 225 498 217 462 q 215 448 213 438 q 212 428 212 421 q 212 409 214 403 q 217 396 224 395 z"}}}
